<?xml version="1.0" encoding="utf-8"?>
<!-- Generator: Adobe Illustrator 21.0.2, SVG Export Plug-In . SVG Version: 6.00 Build 0)  -->
<svg version="1.1" id="Layer_1" xmlns="http://www.w3.org/2000/svg" xmlns:xlink="http://www.w3.org/1999/xlink" x="0px" y="0px"
	 viewBox="0 0 566.5 69" style="enable-background:new 0 0 566.5 69;" xml:space="preserve">
<style type="text/css">
	.st0{fill:#0062AB;}
	.st1{fill:#FFFFFF;}
</style>
<polygon class="st0" points="566.5,0 9.6,0 0,69 556.9,69 "/>
<g>
	<path class="st1" d="M34.2,57.2c-7,0-11.8-2.6-14.3-7.8l-0.5-1l5.4-2.7l0.5,1c1.8,3.3,4.9,4.7,9.7,4.7c4.2,0,9.4-1.4,10.3-8
		c0.4-2.5,0-4.3-1.1-5.6c-1.2-1.4-3.6-2.2-6.9-2.2h-6.8l0.7-5.5h6.6c3.4,0,7.6-1.1,8.3-6.5c0.3-2,0-3.6-1-4.8
		c-1.1-1.2-2.9-1.9-5.3-1.9c-4.1,0-7,1.2-9.4,3.8l-0.6,0.7l-4.7-2.7l0.9-1.1c3.7-4.4,8.4-6.5,14.6-6.5c4,0,7.2,1.2,9.2,3.6
		c2,2.3,2.7,5.4,2.2,9.1l0,0c-0.6,4-2.2,6.8-5.1,8.7c3.5,2.2,5,6,4.3,11.1C49.8,52.3,43.6,57.2,34.2,57.2z M22.6,49.4
		c2.2,3.6,6.1,5.5,11.6,5.5c4.8,0,13-1.5,14.6-11.4c0.5-3.3,0-7.7-4.9-9.6L41.4,33l2.4-1.2c3.5-1.7,5.2-4.1,5.8-8.1
		c0.4-3-0.2-5.5-1.7-7.3c-1.6-1.8-4.2-2.8-7.5-2.8c-5,0-8.8,1.5-11.9,4.7l0.7,0.4c2.8-2.7,6.1-3.9,10.5-3.9c3.1,0,5.5,0.9,7.1,2.7
		c1.4,1.6,1.9,3.9,1.5,6.6c-0.7,5.4-4.6,8.5-10.6,8.5h-4.6L33,33.5h4.2c4,0,6.9,1,8.6,3c1.5,1.8,2.1,4.2,1.6,7.4
		c-0.9,6.4-5.6,10.1-12.7,10c-5,0-8.6-1.6-10.9-5L22.6,49.4z"/>
	<path class="st1" d="M87.7,56.6h-6.1l-3.1-14.1H62l-6.9,14.1h-6.3L71,11.9h6.8L87.7,56.6z M83.5,54.3h1.4l-8.9-40h-1.1L80.2,39
		H61.3l12.2-24.7h-1l-20,40h1.1l6.9-14.1h19.8L83.5,54.3z M64.9,36.6h12.4l-3.7-17.4L64.9,36.6z"/>
	<path class="st1" d="M135.6,56.6h-5.8l5.4-38.9h-14.1l-2.9,14c-2.9,13.6-6.2,24.8-18.3,24.8h-1.3l0.8-5.8h1
		c7.2,0,9.5-8.4,12.1-21.3l3.7-17.5h25.6L135.6,56.6z M132.4,54.3h1.1l5.7-40h-21.1L114.8,30c-2.8,13.4-5.2,22.4-13.4,23.1l-0.2,1.2
		c9.3-0.8,12.1-10.5,14.7-22.9l3.2-15.9h18.6L132.4,54.3z"/>
	<path class="st1" d="M173.9,57.2c-5.6,0-10.5-1.8-13.3-5.1c-2.1-2.4-3-5.6-2.5-9l0.9-6.2h-7.9l-2.8,19.7h-5.8l6.3-44.6h5.8
		l-2.7,19.3h7.9l0.8-6.2c1.3-9.4,10.9-13.7,19.3-13.7c5.7,0,10.6,1.9,13.4,5.1c2.1,2.4,2.9,5.5,2.4,8.9l-2.5,18.1
		C191.9,52.9,182.3,57.2,173.9,57.2z M149.1,34.5h12.5l-1.3,8.8c-0.4,2.9,0.3,5.3,1.9,7.2c2.3,2.7,6.6,4.3,11.5,4.3
		c7.4,0,16-3.7,17.1-11.8l2.5-18.1c0.4-2.8-0.2-5.2-1.8-7.1c-2.3-2.7-6.7-4.3-11.7-4.3c-7.4,0-15.9,3.7-17,11.7l-1.1,8.2h-12.6
		l2.7-19.3h-1.1l-5.7,40h1.1L149.1,34.5z M174.4,53.7c-4.7,0-8.7-1.5-11-4c-1.6-1.8-2.2-4.1-1.9-6.6l2.6-18c1-7,8.4-10.3,15.4-10.3
		c4.8,0,8.8,1.4,11,4c1.5,1.8,2.2,4.1,1.8,6.7l-2.5,18C188.8,50.5,181.1,53.7,174.4,53.7z M179.5,17.1c-5.5,0.1-12.2,2.3-13.1,8.3
		l0,0l-2.6,18c-0.3,1.9,0.2,3.5,1.3,4.8c1.8,2,5.2,3.3,9.2,3.3c5.7,0,12.3-2.6,13.1-8.3l2.5-18c0.3-1.9-0.1-3.6-1.2-4.8
		C187.1,18.2,183.6,17.1,179.5,17.1z"/>
	<path class="st1" d="M214.4,56.6h-17.2l6.3-44.6h29l-0.8,5.8h-23.1l-1.7,12.1H218c5.4,0,9,1.2,11.2,3.8c2,2.3,2.7,5.7,2,10
		C230,52.1,224.2,56.6,214.4,56.6z M199.9,54.3h14.6c8.7,0,13.4-3.6,14.5-11c0.5-3.7,0.1-6.4-1.5-8.2c-1.7-2-4.9-3-9.5-3h-13.8
		l2.4-16.7h23.1l0.2-1.2h-24.3L199.9,54.3z M215.3,53.1c-0.1,0-0.2,0-0.3,0h-13.9l2.8-20h13.3c4.2,0,7,1,8.8,2.9
		c1.5,1.8,2.1,4.2,1.6,7.5C226.9,50,222.8,53.1,215.3,53.1z M203.9,50.8h11.2c6.5,0.1,9.6-2.3,10.4-7.6c0.3-2.6,0-4.5-1.1-5.7
		c-1.3-1.4-3.6-2.1-7-2.1H206L203.9,50.8z"/>
	<path class="st1" d="M241,56.6h-6.4l8.7-14.5L232.8,12h6.6l7.8,23.6l14-23.6h6.4L241,56.6z M238.6,54.3h1.1l23.7-40h-1l-14.9,25.1
		H246l-0.4-0.8l-2.6-8.1l-5.4-16.2H236l9.8,28.1L238.6,54.3z"/>
	<path class="st1" d="M294.1,57.2c-5.6,0-10.5-1.8-13.3-5.1c-2.1-2.4-3-5.6-2.5-9l0.9-6.2h-7.9l-2.8,19.7h-5.8L269,12h5.8l-2.7,19.3
		h7.9l0.8-6.2c1.3-9.4,10.9-13.7,19.3-13.7c5.7,0,10.6,1.9,13.4,5.1c2.1,2.4,2.9,5.5,2.4,8.9l-2.5,18.1
		C312.1,52.9,302.5,57.2,294.1,57.2z M269.4,34.5h12.5l-1.3,8.8c-0.4,2.9,0.3,5.3,1.9,7.2c2.3,2.7,6.6,4.3,11.5,4.3
		c7.4,0,16-3.7,17.1-11.8l2.5-18.1c0.4-2.8-0.2-5.2-1.8-7.1c-2.3-2.7-6.7-4.3-11.7-4.3c-7.4,0-15.9,3.7-17,11.7l-1.1,8.2h-12.6
		l2.7-19.3H271l-5.7,40h1.1L269.4,34.5z M294.6,53.7c-4.7,0-8.7-1.5-11-4c-1.6-1.8-2.2-4.1-1.9-6.6l2.6-18c1-7,8.4-10.3,15.4-10.3
		c4.8,0,8.8,1.4,11,4c1.5,1.8,2.2,4.1,1.8,6.7l-2.5,18C309,50.5,301.3,53.7,294.6,53.7z M299.7,17.1c-5.5,0.1-12.2,2.3-13.1,8.3l0,0
		l-2.6,18c-0.3,1.9,0.2,3.5,1.3,4.8c1.8,2,5.2,3.3,9.2,3.3c5.7,0,12.3-2.6,13.1-8.3l2.5-18c0.3-1.9-0.1-3.6-1.2-4.8
		C307.3,18.2,303.8,17.1,299.7,17.1z"/>
	<path class="st1" d="M346.2,57.2c-5.2,0-9.8-1.8-12.5-4.9c-2.1-2.5-3-5.7-2.5-9.3l2.5-17.8c1.3-9.1,10.4-13.8,18.8-13.8
		c7.2,0,12.7,3.2,14.4,8.4l0.3,1l-4.4,2l-0.4-0.8l-1.2,0.2c-1-3-4.8-4.9-9.5-4.9c-5.4,0-11.6,2.6-12.4,8.3l-2.5,17.8
		c-0.3,2,0.2,3.6,1.4,5c1.7,1.9,4.8,3.1,8.4,3.1c4.8,0,9.2-2,11.2-5.1l0.6-0.9l5,2.6l-0.7,1.1C359.7,54,353.3,57.2,346.2,57.2z
		 M336,25.5l-2.5,17.8c-0.4,3,0.2,5.5,2,7.5c2.2,2.6,6.3,4.1,10.8,4.1c5.8,0,11-2.3,14-6.1l-0.9-0.5c-2.6,3.3-7.3,5.3-12.6,5.3
		c-4.3,0-8-1.4-10.1-3.8c-1.6-1.8-2.3-4.2-1.9-6.8l2.5-17.8c1-7.1,8.3-10.3,14.7-10.3c5.1,0,9.3,2,11.1,5.3l1.4-0.6
		c-2.1-4.3-7.4-5.9-11.9-5.9C345.1,13.6,337.1,17.7,336,25.5L336,25.5z"/>
	<path class="st1" d="M382.2,56.6h-5.8l5.4-38.8h-14.1l0.8-5.8h34.1l-0.8,5.8h-14.1L382.2,56.6z M379,54.3h1.2l5.4-38.8h14.1
		l0.2-1.2h-29.4l-0.2,1.2h14.1L379,54.3z"/>
	<path class="st1" d="M429.1,56.6H423l-3.1-14.1h-16.5l-6.9,14.1h-6.3L412.5,12h6.8L429.1,56.6z M424.9,54.3h1.4l-8.9-40h-1.1
		l5.3,24.7h-18.9l12.2-24.7h-1l-20,40h1.1l6.9-14.1h19.8L424.9,54.3z M406.3,36.6h12.4L415,19.2L406.3,36.6z"/>
	<path class="st1" d="M448.7,56.6h-17.3l6.2-44.6h17.1c4.2,0,7.6,1.3,9.6,3.7c1.8,2.1,2.5,5,2.1,8.3c-0.6,3.9-2.1,6.8-4.6,8.8
		c3.4,2.1,4.6,5.7,3.9,11.1l0,0C464.3,52.2,458.4,56.6,448.7,56.6z M434,54.3h14.7c8.6,0,13.5-3.6,14.6-10.8
		c0.7-5.2-0.6-8.1-4.3-9.5l-2.4-0.9l2.3-1.2c2.9-1.5,4.7-4.3,5.3-8.2c0.4-2.7-0.1-4.9-1.5-6.5c-1.6-1.9-4.4-2.9-7.9-2.9h-15.1
		L434,54.3z M449.8,53.1c-0.2,0-0.4,0-0.5,0h-13.9l2.7-19.5h13.6c4.3-0.1,7.2,0.9,8.9,2.8c1.5,1.7,2,4.2,1.6,7.3
		C461.2,50,457.2,53.1,449.8,53.1z M438,50.8h11.3c6.7,0.1,9.8-2.1,10.6-7.3c0.4-2.5,0-4.3-1-5.5c-1.2-1.4-3.6-2.1-7.2-2.1h-11.6
		L438,50.8z M452.1,32.4h-13.9l2.4-16.9h13.6c3.4,0,5.9,0.9,7.4,2.6c1.3,1.5,1.7,3.4,1.4,5.9C462.2,29.4,458.3,32.4,452.1,32.4z
		 M440.9,30.1h11.2c5.1,0,8-2.2,8.6-6.4c0.2-1.8-0.1-3.2-0.9-4.1c-1.3-1.5-3.8-1.8-5.6-1.8h-11.6L440.9,30.1z"/>
	<path class="st1" d="M504,56.6h-7.5l-15.1-18.9l-4.8,4.2l-2.1,14.7h-5.9l6.2-44.6h5.9l-3,21.5l25-21.5h8L486,33.6L504,56.6z
		 M497.7,54.3h1.6l-16.4-20.9l21.8-19.1h-1.1l-29,25l3.5-25H477l-5.6,40h1.2l1.9-13.5l7.3-6.4L497.7,54.3z"/>
	<path class="st1" d="M513.8,56.6h-6.4l8.7-14.5L505.6,12h6.6l7.8,23.6L534,12h6.4L513.8,56.6z M511.4,54.3h1.1l23.7-40h-1
		l-14.9,25.1h-1.5l-0.4-0.8l-2.6-8.1l-5.4-16.2h-1.7l9.8,28.1L511.4,54.3z"/>
	<path class="st1" d="M538.4,57.2c-1.1,0-2.1-0.4-2.8-1.2c-0.7-0.8-1-1.8-0.9-3c0.3-2.2,2.2-3.9,4.4-3.9c1.1,0,2.1,0.4,2.8,1.2
		c0.7,0.8,1,1.8,0.8,3C542.5,55.5,540.6,57.2,538.4,57.2z M539.2,51.4c-1,0-2,0.8-2.1,1.9c0,0.4,0.1,0.8,0.3,1.1
		c0.2,0.3,0.6,0.4,1,0.4c1,0,2-0.8,2.1-1.8c0.1-0.5,0-0.9-0.3-1.2C540,51.6,539.6,51.4,539.2,51.4z M542.8,45.5H537l4.7-33.5h5.9
		L542.8,45.5z M539.6,43.2h1.2l4-28.9h-1.2L539.6,43.2z"/>
</g>
</svg>
