<?xml version="1.0" encoding="utf-8"?>
<!-- Generator: Adobe Illustrator 21.0.2, SVG Export Plug-In . SVG Version: 6.00 Build 0)  -->
<svg version="1.1" id="Layer_1" xmlns="http://www.w3.org/2000/svg" xmlns:xlink="http://www.w3.org/1999/xlink" x="0px" y="0px"
	 viewBox="0 0 809.3 48.7" style="enable-background:new 0 0 809.3 48.7;" xml:space="preserve">
<style type="text/css">
	.st0{fill:#E1134D;}
	.st1{fill:#FFFFFF;}
</style>
<polygon class="st0" points="809.3,0 6.7,0 0,48.7 802.6,48.7 "/>
<g>
	<path class="st1" d="M16,10.9h20.7L33,37.6h-5.6l3-21.5h-9.6l-3,21.5h-5.6L16,10.9z"/>
	<path class="st1" d="M52,10.9c6.3,0,8.8,4.6,8.2,9.3c-0.6,4.8-4.3,9.1-10.6,9.1h-5.2l-1.2,8.4h-5.5l3.7-26.7H52z M50.2,24.1
		c2.7,0,4.3-2,4.6-4.1c0.3-2.1-0.8-3.9-3.4-3.9h-5l-1.1,8H50.2z"/>
	<path class="st1" d="M79.7,20l-0.2,0l-2.8,4.4L66.6,37.6h-5.5l3.8-26.7h5.6l-2,14.3l-1,3.9l0.2,0l2.8-4.3l10.4-13.9h5.3l-3.8,26.7
		h-5.6l1.9-13.3L79.7,20z"/>
	<path class="st1" d="M101.8,37.6l-4-9.4l-6.3,9.4h-6.8l9.7-13.3l-5.9-13.4h6.8l3.6,9.5l6.7-9.5h6.8L102,24.3l6.6,13.3H101.8z"/>
	<path class="st1" d="M111.7,19.4c0.9-6,6.7-8.9,12.2-8.9c5.5,0,10.6,3,9.7,8.9l-1.4,9.7C131.3,35,125.6,38,120,38
		c-5.5,0-10.5-3-9.7-8.9L111.7,19.4z M115.8,29.1c-0.3,2.5,2.2,3.7,4.8,3.7c2.7,0,5.7-1.2,6-3.9l1.4-9.5c0.4-2.6-2.1-3.8-4.8-3.8
		c-2.8,0-5.7,1.2-6,3.8L115.8,29.1z"/>
	<path class="st1" d="M152.6,42.8l0.7-5.1h-15l-0.6,5.1h-5.6l1.4-10.2h0.4c4.5-0.3,5.3-4.8,6.9-12.5l2-9.2h16.7l-3,21.7h3.2
		l-1.4,10.2H152.6z M145.5,24.4c-0.7,3.2-1.5,6-3.1,8.1h8.4l2.3-16.4h-6L145.5,24.4z"/>
	<path class="st1" d="M180.6,20l-0.2,0l-2.8,4.4l-10.1,13.3H162l3.8-26.7h5.6l-2,14.3l-1,3.9l0.2,0l2.8-4.3l10.4-13.9h5.3l-3.8,26.7
		h-5.6l1.9-13.3L180.6,20z"/>
	<path class="st1" d="M214.8,18.1c-0.3,2-1.5,4.2-3.5,5.2c2.5,1.4,3.4,3.9,3,6.4c-0.9,5.7-5.2,8.3-11.3,8.3c-4.2,0-7.5-1.7-9.1-5.2
		l4.2-2.6c1.3,1.9,2.9,2.8,5.3,2.8c2.9,0,4.9-1,5.4-3.5c0.4-2.2-0.7-3.6-3.8-3.6H201l0.6-4.3h3.7c2.6,0,3.9-1.1,4.2-3.2
		c0.2-1.9-1.1-3-3.6-3c-2.2,0-3.8,0.9-5.2,2.2l-3.3-2.7c2.6-3,5.5-4.3,9.4-4.3C213.1,10.5,215.4,13.9,214.8,18.1z"/>
	<path class="st1" d="M238.1,37.6h-5.8l-1.5-6.1h-8l-3.1,6.1h-5.9l13.1-26.7h5.3L238.1,37.6z M224.9,26.4h5.1l-0.9-5.8l-0.2-3.8
		h-0.4l-1.3,3.9L224.9,26.4z"/>
	<path class="st1" d="M267.6,32.4c-2.8,3.7-6.8,5.6-10.4,5.6c-5.2,0-10-3-9.1-8.9l1.4-9.7c0.9-5.9,6.5-8.9,11.8-8.9
		c3.6,0,7.2,1.8,8.5,5.7l-4.8,2.6c-0.8-2-2.7-2.9-4.7-2.9c-2.4,0-4.9,1.3-5.3,3.6l-1.4,9.6c-0.3,2.2,1.7,3.5,4,3.5
		c2,0,4.3-0.9,5.6-2.9L267.6,32.4z"/>
	<path class="st1" d="M288.1,23.4c3.1,1.6,3.3,4.8,2.6,7.4c-1,3.6-4,6.8-10.2,6.8h-10.8l3.7-26.8H284c4.6,0,8,2.7,7.3,7.9
		C291.1,20.2,290.1,22.4,288.1,23.4z M281.1,32.2c5.2,0,6.1-6.1,0.8-6.1h-5l-0.8,6.1H281.1z M282.6,21.3c3.8,0,4.9-5.1,0.7-5.1h-5
		l-0.7,5.1H282.6z"/>
	<path class="st1" d="M295.1,19.4c0.9-6,6.7-8.9,12.2-8.9c5.5,0,10.6,3,9.7,8.9l-1.4,9.7c-0.8,5.9-6.6,8.9-12.2,8.9
		c-5.5,0-10.5-3-9.7-8.9L295.1,19.4z M299.3,29.1c-0.3,2.5,2.2,3.7,4.8,3.7c2.7,0,5.7-1.2,6-3.9l1.4-9.5c0.4-2.6-2.1-3.8-4.8-3.8
		c-2.8,0-5.7,1.2-6,3.8L299.3,29.1z"/>
	<path class="st1" d="M337.1,20l-0.2,0l-2.8,4.4L324,37.6h-5.5l3.8-26.7h5.6l-2,14.3l-1,3.9l0.2,0l2.8-4.3l10.4-13.9h5.3l-3.8,26.7
		h-5.6l1.9-13.3L337.1,20z"/>
	<path class="st1" d="M359.4,34.1h-4.2l-2.5-8.6l-0.8-3.7h-0.4l-0.1,5.2L350,37.6h-5.6l3.7-26.7h5.8l4.3,15.4l8.7-15.4h5.8
		l-3.7,26.7h-5.6l1.5-10.7l1.4-5.2h-0.4l-1.8,3.7L359.4,34.1z"/>
	<path class="st1" d="M385,10.9h20.7L402,37.6h-5.6l3-21.5h-9.6l-3,21.5h-5.6L385,10.9z"/>
	<path class="st1" d="M408.6,19.4c0.9-6,6.7-8.9,12.2-8.9c5.5,0,10.6,3,9.7,8.9l-1.4,9.7c-0.8,5.9-6.6,8.9-12.2,8.9
		c-5.5,0-10.5-3-9.7-8.9L408.6,19.4z M412.7,29.1c-0.3,2.5,2.2,3.7,4.8,3.7c2.7,0,5.7-1.2,6-3.9l1.4-9.5c0.4-2.6-2.1-3.8-4.8-3.8
		c-2.8,0-5.7,1.2-6,3.8L412.7,29.1z"/>
	<path class="st1" d="M449.6,42.8l0.7-5.1h-15l-0.6,5.1H429l1.4-10.2h0.4c4.5-0.3,5.3-4.8,6.9-12.5l2-9.2h16.7l-3,21.7h3.2
		l-1.4,10.2H449.6z M442.4,24.4c-0.7,3.2-1.5,6-3.1,8.1h8.4l2.3-16.4h-6L442.4,24.4z"/>
	<path class="st1" d="M480.8,37.6H475l-1.5-6.1h-8l-3.1,6.1h-5.9l13.1-26.7h5.3L480.8,37.6z M467.6,26.4h5.1l-0.9-5.8l-0.2-3.8h-0.4
		l-1.3,3.9L467.6,26.4z"/>
	<path class="st1" d="M497.2,10.9c6.3,0,8.8,4.6,8.2,9.3c-0.6,4.8-4.3,9.1-10.6,9.1h-5.2l-1.2,8.4h-5.5l3.7-26.7H497.2z M495.4,24.1
		c2.7,0,4.3-2,4.6-4.1c0.3-2.1-0.8-3.9-3.4-3.9h-5l-1.1,8H495.4z"/>
	<path class="st1" d="M518.8,23.9l9.3,13.7h-7l-6.8-10.2l-1.2,1.1l-1.3,9.1h-5.6l3.8-26.7h5.6L514,22l11-11.1h7L518.8,23.9z"/>
	<path class="st1" d="M530.5,19.4c0.9-6,6.7-8.9,12.2-8.9s10.6,3,9.7,8.9l-1.4,9.7c-0.8,5.9-6.6,8.9-12.2,8.9c-5.5,0-10.5-3-9.7-8.9
		L530.5,19.4z M534.6,29.1c-0.3,2.5,2.2,3.7,4.8,3.7c2.7,0,5.7-1.2,6-3.9l1.4-9.5c0.4-2.6-2.1-3.8-4.8-3.8c-2.8,0-5.7,1.2-6,3.8
		L534.6,29.1z"/>
	<path class="st1" d="M568.8,34.1h-4.2l-2.5-8.6l-0.8-3.7H561l-0.1,5.2l-1.5,10.6h-5.6l3.7-26.7h5.8l4.3,15.4l8.7-15.4h5.8
		l-3.7,26.7H573l1.5-10.7l1.4-5.2h-0.4l-1.8,3.7L568.8,34.1z"/>
	<path class="st1" d="M594.4,10.9h20.7l-3.8,26.7h-5.6l3-21.5h-9.6l-3,21.5h-5.6L594.4,10.9z"/>
	<path class="st1" d="M618,19.4c0.9-6,6.7-8.9,12.2-8.9c5.5,0,10.6,3,9.7,8.9l-1.4,9.7c-0.8,5.9-6.6,8.9-12.2,8.9
		c-5.5,0-10.5-3-9.7-8.9L618,19.4z M622.1,29.1c-0.3,2.5,2.2,3.7,4.8,3.7c2.7,0,5.7-1.2,6-3.9l1.4-9.5c0.4-2.6-2.1-3.8-4.8-3.8
		c-2.8,0-5.7,1.2-6,3.8L622.1,29.1z"/>
	<path class="st1" d="M670.5,37.6h-5.8l-1.5-6.1h-8l-3.1,6.1h-5.9l13.1-26.7h5.3L670.5,37.6z M657.3,26.4h5.1l-0.9-5.8l-0.2-3.8H661
		l-1.3,3.9L657.3,26.4z"/>
	<path class="st1" d="M690.9,42.8l0.7-5.1h-15l-0.6,5.1h-5.6l1.4-10.2h0.4c4.5-0.3,5.3-4.8,6.9-12.5l2-9.2h16.7l-3,21.7h3.2
		l-1.4,10.2H690.9z M683.7,24.4c-0.7,3.2-1.5,6-3.1,8.1h8.4l2.3-16.4h-6L683.7,24.4z"/>
	<path class="st1" d="M714.6,10.9c6.3,0,8.8,4.6,8.2,9.3c-0.6,4.8-4.3,9.1-10.6,9.1H707l-1.2,8.4h-5.5l3.7-26.7H714.6z M712.7,24.1
		c2.7,0,4.3-2,4.6-4.1c0.3-2.1-0.8-3.9-3.4-3.9h-5l-1.1,8H712.7z"/>
	<path class="st1" d="M731.5,21.5H743l-0.8,5.4h-11.5l-0.7,5.3h12.5l-0.8,5.4h-18.1l3.7-26.8h18.1l-0.8,5.4h-12.5L731.5,21.5z"/>
	<path class="st1" d="M765.7,32.4c-2.8,3.7-6.8,5.6-10.4,5.6c-5.2,0-10-3-9.1-8.9l1.4-9.7c0.9-5.9,6.5-8.9,11.8-8.9
		c3.6,0,7.2,1.8,8.5,5.7l-4.8,2.6c-0.8-2-2.7-2.9-4.7-2.9c-2.4,0-4.9,1.3-5.3,3.6l-1.4,9.6c-0.3,2.2,1.7,3.5,4,3.5
		c2,0,4.3-0.9,5.6-2.9L765.7,32.4z"/>
	<path class="st1" d="M767.8,10.9h6.3l2.2,7l1.3,5h0.2l2.8-5.1l4.1-6.9h6.1l-15.9,26.7H769l5.1-8.6L767.8,10.9z"/>
	<path class="st1" d="M791.4,30.9c1.8,0,3.1,1.4,2.8,3.2c-0.3,1.8-1.9,3.2-3.7,3.2s-3-1.4-2.8-3.2C788,32.2,789.6,30.9,791.4,30.9z
		 M793.1,19.1c1.8,0,3.1,1.4,2.8,3.2c-0.2,1.8-1.9,3.3-3.7,3.3s-3-1.5-2.8-3.3C789.6,20.5,791.3,19.1,793.1,19.1z"/>
</g>
</svg>
