<?xml version="1.0" encoding="utf-8"?>
<!-- Generator: Adobe Illustrator 21.0.2, SVG Export Plug-In . SVG Version: 6.00 Build 0)  -->
<svg version="1.1" id="Layer_1" xmlns="http://www.w3.org/2000/svg" xmlns:xlink="http://www.w3.org/1999/xlink" x="0px" y="0px"
	 viewBox="0 0 826 138" style="enable-background:new 0 0 826 138;" xml:space="preserve">
<style type="text/css">
	.st0{fill:#0062AB;}
	.st1{fill:#FFFFFF;}
</style>
<polygon class="st0" points="808.5,69 251.6,69 242,138 798.9,138 "/>
<g>
	<path class="st1" d="M276.2,126.2c-7,0-11.8-2.6-14.3-7.8l-0.5-1l5.4-2.7l0.5,1c1.8,3.3,4.9,4.7,9.7,4.7c4.2,0,9.4-1.4,10.3-8
		c0.4-2.5,0-4.3-1.1-5.6c-1.2-1.4-3.6-2.2-6.9-2.2h-6.8l0.7-5.5h6.6c3.4,0,7.6-1.1,8.3-6.5c0.3-2,0-3.6-1-4.8
		c-1.1-1.2-2.9-1.9-5.3-1.9c-4.1,0-7,1.2-9.4,3.8l-0.6,0.7l-4.7-2.7l0.9-1.1c3.7-4.4,8.4-6.5,14.6-6.5c4,0,7.2,1.2,9.2,3.6
		c2,2.3,2.7,5.4,2.2,9.1l0,0c-0.6,4-2.2,6.8-5.1,8.7c3.5,2.2,5,6,4.3,11.1C291.8,121.3,285.6,126.2,276.2,126.2z M264.6,118.4
		c2.2,3.6,6.1,5.5,11.6,5.5c4.8,0,13-1.5,14.6-11.4c0.5-3.3,0-7.7-4.9-9.6l-2.5-0.9l2.4-1.2c3.5-1.7,5.2-4.1,5.8-8.1
		c0.4-3-0.2-5.5-1.7-7.3c-1.6-1.8-4.2-2.8-7.5-2.8c-5,0-8.8,1.5-11.9,4.7l0.7,0.4c2.8-2.7,6.1-3.9,10.5-3.9c3.1,0,5.5,0.9,7.1,2.7
		c1.4,1.6,1.9,3.9,1.5,6.6c-0.7,5.4-4.6,8.5-10.6,8.5h-4.6l-0.1,0.9h4.2c4,0,6.9,1,8.6,3c1.5,1.8,2.1,4.2,1.6,7.4
		c-0.9,6.4-5.6,10.1-12.7,10c-5,0-8.6-1.6-10.9-5L264.6,118.4z"/>
	<path class="st1" d="M329.7,125.6h-6.1l-3.1-14.1H304l-6.9,14.1h-6.3L313,80.9h6.8L329.7,125.6z M325.5,123.3h1.4l-8.9-40h-1.1
		l5.3,24.7h-18.9l12.2-24.7h-1l-20,40h1.1l6.9-14.1h19.8L325.5,123.3z M306.9,105.6h12.4l-3.7-17.4L306.9,105.6z"/>
	<path class="st1" d="M377.6,125.6h-5.8l5.4-38.9h-14.1l-2.9,14c-2.9,13.6-6.2,24.8-18.3,24.8h-1.3l0.8-5.8h1
		c7.2,0,9.5-8.4,12.1-21.3l3.7-17.5h25.6L377.6,125.6z M374.4,123.3h1.1l5.7-40h-21.1L356.8,99c-2.8,13.4-5.2,22.4-13.4,23.1
		l-0.2,1.2c9.3-0.8,12.1-10.5,14.7-22.9l3.2-15.9h18.6L374.4,123.3z"/>
	<path class="st1" d="M415.9,126.2c-5.6,0-10.5-1.8-13.3-5.1c-2.1-2.4-3-5.6-2.5-9l0.9-6.2h-7.9l-2.8,19.7h-5.8l6.3-44.6h5.8
		l-2.7,19.3h7.9l0.8-6.2c1.3-9.4,10.9-13.7,19.3-13.7c5.7,0,10.6,1.9,13.4,5.1c2.1,2.4,2.9,5.5,2.4,8.9l-2.5,18.1
		C433.9,121.9,424.3,126.2,415.9,126.2z M391.1,103.5h12.5l-1.3,8.8c-0.4,2.9,0.3,5.3,1.9,7.2c2.3,2.7,6.6,4.3,11.5,4.3
		c7.4,0,16-3.7,17.1-11.8l2.5-18.1c0.4-2.8-0.2-5.2-1.8-7.1c-2.3-2.7-6.7-4.3-11.7-4.3c-7.4,0-15.9,3.7-17,11.7l-1.1,8.2h-12.6
		l2.7-19.3h-1.1l-5.7,40h1.1L391.1,103.5z M416.4,122.7c-4.7,0-8.7-1.5-11-4c-1.6-1.8-2.2-4.1-1.9-6.6l2.6-18
		c1-7,8.4-10.3,15.4-10.3c4.8,0,8.8,1.4,11,4c1.5,1.8,2.2,4.1,1.8,6.7l-2.5,18C430.8,119.5,423.1,122.7,416.4,122.7z M421.5,86.1
		c-5.5,0.1-12.2,2.3-13.1,8.3v0l-2.6,18c-0.3,1.9,0.2,3.5,1.3,4.8c1.8,2,5.2,3.3,9.2,3.3c5.7,0,12.3-2.6,13.1-8.3l2.5-18
		c0.3-1.9-0.1-3.6-1.2-4.8C429.1,87.2,425.6,86.1,421.5,86.1z"/>
	<path class="st1" d="M456.4,125.6h-17.2l6.3-44.6h29l-0.8,5.8h-23.1l-1.7,12.1H460c5.4,0,9,1.2,11.2,3.8c2,2.3,2.7,5.7,2,10
		C472,121.1,466.2,125.6,456.4,125.6z M441.9,123.3h14.6c8.7,0,13.4-3.6,14.5-11c0.5-3.7,0.1-6.4-1.5-8.2c-1.7-2-4.9-3-9.5-3h-13.8
		l2.4-16.7h23.1l0.2-1.2h-24.3L441.9,123.3z M457.3,122.1c-0.1,0-0.2,0-0.3,0h-13.9l2.8-20h13.3c4.2,0,7,1,8.8,2.9
		c1.5,1.8,2.1,4.2,1.6,7.5C468.9,119,464.8,122.1,457.3,122.1z M445.9,119.8h11.2c6.5,0.1,9.6-2.3,10.4-7.6c0.3-2.6,0-4.5-1.1-5.7
		c-1.3-1.4-3.6-2.1-7-2.1H448L445.9,119.8z"/>
	<path class="st1" d="M483,125.6h-6.4l8.7-14.5l-10.5-30.1h6.6l7.8,23.6l14-23.6h6.4L483,125.6z M480.6,123.3h1.1l23.7-40h-1
		l-14.9,25.1H488l-0.4-0.8l-2.6-8.1l-5.4-16.2H478l9.8,28.1L480.6,123.3z"/>
	<path class="st1" d="M536.1,126.2c-5.6,0-10.5-1.8-13.3-5.1c-2.1-2.4-3-5.6-2.5-9l0.9-6.2h-7.9l-2.8,19.7h-5.8l6.3-44.6h5.8
		l-2.7,19.3h7.9l0.8-6.2c1.3-9.4,10.9-13.7,19.3-13.7c5.7,0,10.6,1.9,13.4,5.1c2.1,2.4,2.9,5.5,2.4,8.9l-2.5,18.1
		C554.1,121.9,544.5,126.2,536.1,126.2z M511.4,103.5h12.5l-1.3,8.8c-0.4,2.9,0.3,5.3,1.9,7.2c2.3,2.7,6.6,4.3,11.5,4.3
		c7.4,0,16-3.7,17.1-11.8l2.5-18.1c0.4-2.8-0.2-5.2-1.8-7.1c-2.3-2.7-6.7-4.3-11.7-4.3c-7.4,0-15.9,3.7-17,11.7l-1.1,8.2h-12.6
		l2.7-19.3h-1.1l-5.7,40h1.1L511.4,103.5z M536.6,122.7c-4.7,0-8.7-1.5-11-4c-1.6-1.8-2.2-4.1-1.9-6.6l2.6-18
		c1-7,8.4-10.3,15.4-10.3c4.8,0,8.8,1.4,11,4c1.5,1.8,2.2,4.1,1.8,6.7l-2.5,18C551,119.5,543.3,122.7,536.6,122.7z M541.7,86.1
		c-5.5,0.1-12.2,2.3-13.1,8.3v0l-2.6,18c-0.3,1.9,0.2,3.5,1.3,4.8c1.8,2,5.2,3.3,9.2,3.3c5.7,0,12.3-2.6,13.1-8.3l2.5-18
		c0.3-1.9-0.1-3.6-1.2-4.8C549.3,87.2,545.8,86.1,541.7,86.1z"/>
	<path class="st1" d="M588.2,126.2c-5.2,0-9.8-1.8-12.5-4.9c-2.1-2.5-3-5.7-2.5-9.3l2.5-17.8c1.3-9.1,10.4-13.8,18.8-13.8
		c7.2,0,12.7,3.2,14.4,8.4l0.3,1l-4.4,2l-0.4-0.8l-1.2,0.2c-1-3-4.8-4.9-9.5-4.9c-5.4,0-11.6,2.6-12.4,8.3l-2.5,17.8
		c-0.3,2,0.2,3.6,1.4,5c1.7,1.9,4.8,3.1,8.4,3.1c4.8,0,9.2-2,11.2-5.1l0.6-0.9l5,2.6l-0.7,1.1C601.7,123,595.3,126.2,588.2,126.2z
		 M578,94.5l-2.5,17.8c-0.4,3,0.2,5.5,2,7.5c2.2,2.6,6.3,4.1,10.8,4.1c5.8,0,11-2.3,14-6.1l-0.9-0.5c-2.6,3.3-7.3,5.3-12.6,5.3
		c-4.3,0-8-1.4-10.1-3.8c-1.6-1.8-2.3-4.2-1.9-6.8l2.5-17.8c1-7.1,8.3-10.3,14.7-10.3c5.1,0,9.3,2,11.1,5.3l1.4-0.6
		c-2.1-4.3-7.4-5.9-11.9-5.9C587.1,82.6,579.1,86.7,578,94.5L578,94.5z"/>
	<path class="st1" d="M624.2,125.6h-5.8l5.4-38.8h-14.1l0.8-5.8h34.1l-0.8,5.8h-14.1L624.2,125.6z M621,123.3h1.2l5.4-38.8h14.1
		l0.2-1.2h-29.4l-0.2,1.2h14.1L621,123.3z"/>
	<path class="st1" d="M671.1,125.6h-6.1l-3.1-14.1h-16.5l-6.9,14.1h-6.3l22.3-44.6h6.8L671.1,125.6z M666.9,123.3h1.4l-8.9-40h-1.1
		l5.3,24.7h-18.9l12.2-24.7h-1l-20,40h1.1l6.9-14.1h19.8L666.9,123.3z M648.3,105.6h12.4l-3.7-17.4L648.3,105.6z"/>
	<path class="st1" d="M690.7,125.6h-17.3l6.2-44.6h17.1c4.2,0,7.6,1.3,9.6,3.7c1.8,2.1,2.5,5,2.1,8.3c-0.6,3.9-2.1,6.8-4.6,8.8
		c3.4,2.1,4.6,5.7,3.9,11.1l0,0C706.3,121.2,700.4,125.6,690.7,125.6z M676,123.3h14.7c8.6,0,13.5-3.6,14.6-10.8
		c0.7-5.2-0.6-8.1-4.3-9.5l-2.4-0.9l2.3-1.2c2.9-1.5,4.7-4.3,5.3-8.2c0.4-2.7-0.1-4.9-1.5-6.5c-1.6-1.9-4.4-2.9-7.9-2.9h-15.1
		L676,123.3z M691.8,122.1c-0.2,0-0.4,0-0.5,0h-13.9l2.7-19.5h13.6c4.3-0.1,7.2,0.9,8.9,2.8c1.5,1.7,2,4.2,1.6,7.3
		C703.2,119,699.2,122.1,691.8,122.1z M680,119.8h11.3c6.7,0.1,9.8-2.1,10.6-7.3c0.4-2.5,0-4.3-1-5.5c-1.2-1.4-3.6-2.1-7.2-2.1
		h-11.6L680,119.8z M694.1,101.4h-13.9l2.4-16.9h13.6c3.4,0,5.9,0.9,7.4,2.6c1.3,1.5,1.7,3.4,1.4,5.9
		C704.2,98.4,700.3,101.4,694.1,101.4z M682.9,99.1h11.2c5.1,0,8-2.2,8.6-6.4c0.2-1.8-0.1-3.2-0.9-4.1c-1.3-1.5-3.8-1.8-5.6-1.8
		h-11.6L682.9,99.1z"/>
	<path class="st1" d="M746,125.6h-7.5l-15.1-18.9l-4.8,4.2l-2.1,14.7h-5.9l6.2-44.6h5.9l-3,21.5l25-21.5h8L728,102.6L746,125.6z
		 M739.7,123.3h1.6l-16.4-20.9l21.8-19.1h-1.1l-29,25l3.5-25H719l-5.6,40h1.2l1.9-13.5l7.3-6.4L739.7,123.3z"/>
	<path class="st1" d="M755.8,125.6h-6.4l8.7-14.5l-10.5-30.1h6.6l7.8,23.6l14-23.6h6.4L755.8,125.6z M753.4,123.3h1.1l23.7-40h-1
		l-14.9,25.1h-1.5l-0.4-0.8l-2.6-8.1l-5.4-16.2h-1.7l9.8,28.1L753.4,123.3z"/>
	<path class="st1" d="M780.4,126.2c-1.1,0-2.1-0.4-2.8-1.2c-0.7-0.8-1-1.8-0.9-3c0.3-2.2,2.2-3.9,4.4-3.9c1.1,0,2.1,0.4,2.8,1.2
		c0.7,0.8,1,1.8,0.8,3C784.5,124.5,782.6,126.2,780.4,126.2z M781.2,120.4c-1,0-2,0.8-2.1,1.9c0,0.4,0.1,0.8,0.3,1.1
		c0.2,0.3,0.6,0.4,1,0.4c1,0,2-0.8,2.1-1.8c0.1-0.5,0-0.9-0.3-1.2C782,120.6,781.6,120.4,781.2,120.4z M784.8,114.5H779l4.7-33.5
		h5.9L784.8,114.5z M781.6,112.2h1.2l4-28.9h-1.2L781.6,112.2z"/>
</g>
<polygon class="st0" points="602.5,0.1 27,0.1 17.5,69 593,69 "/>
<g>
	<path class="st1" d="M41.9,12h34.6l-6.3,44.6h-9.3l5-35.8h-16l-5,35.8h-9.3L41.9,12z"/>
	<path class="st1" d="M81.2,26.2c1.4-9.9,11.1-14.9,20.3-14.9c9.1,0,17.6,5,16.2,14.9l-2.3,16.1c-1.4,9.9-11,14.9-20.3,14.9
		c-9.2,0-17.6-5-16.2-14.9L81.2,26.2z M88.1,42.3c-0.6,4.1,3.7,6.2,8.1,6.2c4.5,0,9.4-2.1,10-6.4l2.3-15.9c0.6-4.3-3.5-6.3-8-6.3
		c-4.6,0-9.4,2.1-10.1,6.3L88.1,42.3z"/>
	<path class="st1" d="M140.3,20.8l-2.9,13.8c-2.5,12.2-5.7,23-20.7,22l1.3-8.7c7.8,0.6,9.2-8.6,11.7-20.5l3.1-15.4h28.5L155,56.5
		h-9.3l5-35.8H140.3z"/>
	<path class="st1" d="M163.6,12h10.5l3.7,11.7l2.2,8.3h0.3l4.7-8.5l6.8-11.5h10.1l-26.4,44.6h-9.9l8.6-14.4L163.6,12z"/>
	<path class="st1" d="M223.7,40.5c-2.1,1.6-5.6,3.1-9.4,3.1c-8.1,0-14.5-4.9-13.1-14.8l2.4-16.8h9.3l-2.4,16.8
		c-0.5,4,1.7,5.9,5.7,5.9c3.7,0,6.7-1.1,8.7-2.7l2.9-20h9.3l-6.3,44.6h-9.3L223.7,40.5z"/>
	<path class="st1" d="M269.6,27.2l-0.3-0.1l-4.7,7.3l-16.8,22.1h-9.2l6.3-44.6h9.3l-3.3,23.9l-1.6,6.4l0.3,0.1l4.6-7.2L271.4,12h8.9
		L274,56.5h-9.3l3.1-22.1L269.6,27.2z"/>
	<path class="st1" d="M300.5,12H335l-6.3,44.6h-9.3l5-35.8h-16l-5,35.8h-9.3L300.5,12z"/>
	<path class="st1" d="M339.8,26.2c1.4-9.9,11.1-14.9,20.3-14.9c9.1,0,17.6,5,16.2,14.9L374,42.3c-1.4,9.9-11,14.9-20.3,14.9
		c-9.2,0-17.6-5-16.2-14.9L339.8,26.2z M346.6,42.3c-0.6,4.1,3.7,6.2,8.1,6.2c4.5,0,9.4-2.1,10-6.4l2.3-15.9c0.6-4.3-3.5-6.3-8-6.3
		c-4.6,0-9.4,2.1-10.1,6.3L346.6,42.3z"/>
	<path class="st1" d="M408.1,65.1l1.1-8.6h-25.1l-1.1,8.6h-9.3l2.3-17h0.7c7.6-0.4,8.9-8.1,11.5-20.8l3.3-15.4h27.8l-5,36.1h5.4
		l-2.3,17H408.1z M396.1,34.6c-1.1,5.4-2.5,10.1-5.1,13.5h14l3.8-27.3H399L396.1,34.6z"/>
	<path class="st1" d="M460.1,56.5h-9.7l-2.5-10.2h-13.3l-5.1,10.2h-9.9L441.5,12h8.9L460.1,56.5z M438.1,37.8h8.6l-1.4-9.7l-0.4-6.4
		h-0.7l-2.1,6.4L438.1,37.8z"/>
	<path class="st1" d="M487.5,12c10.6,0,14.7,7.7,13.7,15.4c-0.9,8.1-7.1,15.1-17.6,15.1h-8.7l-2,14h-9.2l6.2-44.6H487.5z
		 M484.4,34.1c4.5,0.1,7.2-3.3,7.6-6.9c0.5-3.5-1.4-6.5-5.7-6.5h-8.4L476,34.1H484.4z"/>
	<path class="st1" d="M505.7,26.2c1.4-9.9,11.1-14.9,20.3-14.9c9.1,0,17.6,5,16.2,14.9l-2.3,16.1c-1.4,9.9-11,14.9-20.3,14.9
		c-9.2,0-17.6-5-16.2-14.9L505.7,26.2z M512.6,42.3c-0.6,4.1,3.7,6.2,8.1,6.2c4.5,0,9.4-2.1,10-6.4l2.3-15.9c0.6-4.3-3.5-6.3-8-6.3
		c-4.6,0-9.4,2.1-10.1,6.3L512.6,42.3z"/>
	<path class="st1" d="M565.5,33.8l15.5,22.8h-11.7l-11.3-17.1l-2.1,1.8l-2.2,15.2h-9.3l6.3-44.6h9.3l-2.6,18.5L575.9,12h11.6
		L565.5,33.8z"/>
</g>
</svg>
