<?xml version="1.0" encoding="utf-8"?>
<!-- Generator: Adobe Illustrator 21.0.2, SVG Export Plug-In . SVG Version: 6.00 Build 0)  -->
<svg version="1.1" id="Layer_1" xmlns="http://www.w3.org/2000/svg" xmlns:xlink="http://www.w3.org/1999/xlink" x="0px" y="0px"
	 viewBox="0 0 585 69" style="enable-background:new 0 0 585 69;" xml:space="preserve">
<style type="text/css">
	.st0{fill:#0062AB;}
	.st1{fill:#FFFFFF;}
</style>
<polygon class="st0" points="585,0.1 9.5,0.1 0,69 575.5,69 "/>
<g>
	<path class="st1" d="M24.4,12H59l-6.3,44.6h-9.3l5-35.8h-16l-5,35.8h-9.3L24.4,12z"/>
	<path class="st1" d="M63.7,26.2c1.4-9.9,11.1-14.9,20.3-14.9c9.1,0,17.6,5,16.2,14.9l-2.3,16.1c-1.4,9.9-11,14.9-20.3,14.9
		c-9.2,0-17.6-5-16.2-14.9L63.7,26.2z M70.6,42.3c-0.6,4.1,3.7,6.2,8.1,6.2c4.5,0,9.4-2.1,10-6.4L91,26.2c0.6-4.3-3.5-6.3-8-6.3
		c-4.6,0-9.4,2.1-10.1,6.3L70.6,42.3z"/>
	<path class="st1" d="M122.8,20.8l-2.9,13.8c-2.5,12.2-5.7,23-20.7,22l1.3-8.7c7.8,0.6,9.2-8.6,11.7-20.5l3.1-15.4h28.5l-6.3,44.5
		h-9.3l5-35.8L122.8,20.8L122.8,20.8z"/>
	<path class="st1" d="M146.1,12h10.5l3.7,11.7l2.2,8.3h0.3l4.7-8.5l6.8-11.5h10.1L158,56.6h-9.9l8.6-14.4L146.1,12z"/>
	<path class="st1" d="M206.2,40.5c-2.1,1.6-5.6,3.1-9.4,3.1c-8.1,0-14.5-4.9-13.1-14.8l2.4-16.8h9.3L193,28.8
		c-0.5,4,1.7,5.9,5.7,5.9c3.7,0,6.7-1.1,8.7-2.7l2.9-20h9.3l-6.3,44.6H204L206.2,40.5z"/>
	<path class="st1" d="M252.1,27.2l-0.3-0.1l-4.7,7.3l-16.8,22.1h-9.2l6.3-44.6h9.3l-3.3,23.9l-1.6,6.4l0.3,0.1l4.6-7.2L253.9,12h8.9
		l-6.3,44.5h-9.3l3.1-22.1L252.1,27.2z"/>
	<path class="st1" d="M283,12h34.5l-6.3,44.6h-9.3l5-35.8h-16l-5,35.8h-9.3L283,12z"/>
	<path class="st1" d="M322.3,26.2c1.4-9.9,11.1-14.9,20.3-14.9c9.1,0,17.6,5,16.2,14.9l-2.3,16.1c-1.4,9.9-11,14.9-20.3,14.9
		c-9.2,0-17.6-5-16.2-14.9L322.3,26.2z M329.1,42.3c-0.6,4.1,3.7,6.2,8.1,6.2c4.5,0,9.4-2.1,10-6.4l2.3-15.9c0.6-4.3-3.5-6.3-8-6.3
		c-4.6,0-9.4,2.1-10.1,6.3L329.1,42.3z"/>
	<path class="st1" d="M390.6,65.1l1.1-8.6h-25.1l-1.1,8.6h-9.3l2.3-17h0.7c7.6-0.4,8.9-8.1,11.5-20.8l3.3-15.4h27.8l-5,36.1h5.4
		l-2.3,17L390.6,65.1L390.6,65.1z M378.6,34.6c-1.1,5.4-2.5,10.1-5.1,13.5h14l3.8-27.3h-9.8L378.6,34.6z"/>
	<path class="st1" d="M442.6,56.5h-9.7l-2.5-10.2h-13.3L412,56.5h-9.9L424,12h8.9L442.6,56.5z M420.6,37.8h8.6l-1.4-9.7l-0.4-6.4
		h-0.7l-2.1,6.4L420.6,37.8z"/>
	<path class="st1" d="M470,12c10.6,0,14.7,7.7,13.7,15.4c-0.9,8.1-7.1,15.1-17.6,15.1h-8.7l-2,14h-9.2l6.2-44.6L470,12L470,12z
		 M466.9,34.1c4.5,0.1,7.2-3.3,7.6-6.9c0.5-3.5-1.4-6.5-5.7-6.5h-8.4l-1.9,13.4H466.9z"/>
	<path class="st1" d="M488.2,26.2c1.4-9.9,11.1-14.9,20.3-14.9c9.1,0,17.6,5,16.2,14.9l-2.3,16.1c-1.4,9.9-11,14.9-20.3,14.9
		c-9.2,0-17.6-5-16.2-14.9L488.2,26.2z M495.1,42.3c-0.6,4.1,3.7,6.2,8.1,6.2c4.5,0,9.4-2.1,10-6.4l2.3-15.9c0.6-4.3-3.5-6.3-8-6.3
		c-4.6,0-9.4,2.1-10.1,6.3L495.1,42.3z"/>
	<path class="st1" d="M548,33.8l15.5,22.8h-11.7l-11.3-17.1l-2.1,1.8l-2.2,15.2h-9.3l6.3-44.6h9.3l-2.6,18.5L558.4,12H570L548,33.8z
		"/>
</g>
</svg>
