<svg xmlns="http://www.w3.org/2000/svg" viewBox="0 0 374.56 94.47"><defs><style>.cls-1{fill:#1b2433;}.cls-2{fill:#ffc947;}.cls-3{fill:#fff;}</style></defs><title>goldbet_logo_2</title><g id="Слой_2" data-name="Слой 2"><g id="Layer_1" data-name="Layer 1"><path class="cls-1" d="M107.54,48.69a11.09,11.09,0,0,0-7.39,2.9,11.73,11.73,0,0,0-4.09,7,8.29,8.29,0,0,0,1.64,7,7.77,7.77,0,0,0,6.37,2.9,11.18,11.18,0,0,0,7.44-2.9,11.71,11.71,0,0,0,4.08-7,8.35,8.35,0,0,0-1.63-7A7.84,7.84,0,0,0,107.54,48.69Z"/><path class="cls-1" d="M182.23,48.92a11.19,11.19,0,0,0-7.44,2.88,11.63,11.63,0,0,0-4.08,7,8.19,8.19,0,0,0,1.65,6.92,7.85,7.85,0,0,0,6.42,2.88,11.16,11.16,0,0,0,7.43-2.88,11.55,11.55,0,0,0,4.08-6.92,8.27,8.27,0,0,0-1.64-7A7.85,7.85,0,0,0,182.23,48.92Z"/><path class="cls-1" d="M256.83,49.74a10.87,10.87,0,0,0-7.24,2.8,11.29,11.29,0,0,0-4,6.8,8,8,0,0,0,1.6,6.75,7.68,7.68,0,0,0,6.27,2.81,10.88,10.88,0,0,0,7.24-2.81,11.24,11.24,0,0,0,4-6.75,8,8,0,0,0-1.59-6.8A7.66,7.66,0,0,0,256.83,49.74Z"/><path class="cls-1" d="M310.39,54.32a5.44,5.44,0,0,0-1.6-1.66,4.32,4.32,0,0,0-2.58-.75,9.34,9.34,0,0,0-2.89.4,8,8,0,0,0-2.08,1,7.11,7.11,0,0,0-1.35,1.18,8.79,8.79,0,0,0-1,1.4L311,55.71A3.42,3.42,0,0,0,310.39,54.32Z"/><path class="cls-1" d="M371.75,32.49a12.08,12.08,0,0,0-4.15-3.17l1.21-6.91a12,12,0,0,0-19.62-11.19L334.48,23.81a11.93,11.93,0,0,0-3.24,4.41,12,12,0,0,0-7.91,3.38,14.43,14.43,0,0,0-1.95-1.14l-.81-.38a11.49,11.49,0,0,0-1.69-.73c-.25-.09-.51-.18-.76-.25a29.87,29.87,0,0,0-9.44-1.46h-.88c-.35,0-.71,0-1.06.05l-1.5.13c-.29,0-.57,0-.85.08A34.31,34.31,0,0,0,296.16,30c-.21.07-.43.15-.64.24l0,0a10.06,10.06,0,0,0-1.08.42,39.63,39.63,0,0,0-9.56,6l-.08.07A29.59,29.59,0,0,0,277,29.25a30,30,0,0,0-13.91-4.9,12,12,0,0,0-4.44-9.19l-11.47-9.3a12,12,0,0,0-19.39,7.27L220,57.94a18,18,0,0,0-3.14-.29h-.28L224,15.59A12,12,0,0,0,204.36,4.4L187.9,18.48A12,12,0,0,0,184.61,23h-.35a36.78,36.78,0,0,0-16.67,4l2-11.42A12,12,0,0,0,157.77,1.52h-14A12,12,0,0,0,132,11.45L128.9,28.9c-.36-.27-.72-.54-1.1-.8a31.71,31.71,0,0,0-17.93-5.21,37.61,37.61,0,0,0-18.09,4.64,42.75,42.75,0,0,0-8.61,6.14,12,12,0,0,0-3.09-1.35l3.56-3.75A12,12,0,0,0,83,11.41L81.43,10a39.71,39.71,0,0,0-6.54-4.61l-.13-.07a42.38,42.38,0,0,0-10.24-4A41.31,41.31,0,0,0,54,0h0c-1.08,0-2.2,0-3.32.11A52.41,52.41,0,0,0,34.22,4.05l-.2.08a53.58,53.58,0,0,0-18,12,55.27,55.27,0,0,0-10.54,15A56.88,56.88,0,0,0,.75,45.32,39.09,39.09,0,0,0,.32,57.8a74.56,74.56,0,0,0,1.89,8.83A36.26,36.26,0,0,0,7.92,78.2a39.8,39.8,0,0,0,12,10.61l.28.16a40,40,0,0,0,19.08,5.31c.46,0,.91,0,1.36,0a51.09,51.09,0,0,0,16.6-2.73,43.71,43.71,0,0,0,14.85-8.38l.18-.16c.95-.87,1.83-1.74,2.67-2.6a30.5,30.5,0,0,0,8.68,8.78,31.66,31.66,0,0,0,17.93,5.21,37.61,37.61,0,0,0,18.09-4.64c.79-.42,1.56-.88,2.31-1.35.22.32.46.64.71.95a12,12,0,0,0,9.19,4.28h14a12,12,0,0,0,10.37-6c.67.54,1.36,1,2.09,1.54a31.61,31.61,0,0,0,18,5.23,37,37,0,0,0,13.58-2.57L197,93.83a11.78,11.78,0,0,0,3.12.41,12,12,0,0,0,6.44-1.88l.32-.22A17.39,17.39,0,0,0,214.74,94a18.55,18.55,0,0,0,7.15-1.43A12,12,0,0,0,228,94.23a12.18,12.18,0,0,0,2.87-.35L238.55,92a32.23,32.23,0,0,0,12.64,2.46A37,37,0,0,0,269,89.88a42.5,42.5,0,0,0,8.85-6.4c.12.16.24.31.37.46a29.61,29.61,0,0,0,9.93,7.51,25.76,25.76,0,0,0,6.7,2.23l.25,0,.74.13,1.32.17,1.73.17c.77.07,1.33.11,1.9.11h.57a36.2,36.2,0,0,0,6.2-.57c.37-.07.74-.14,1.1-.24l.29-.08c.56-.11,1.14-.25,1.78-.42l1.52-.4a18.7,18.7,0,0,0,1.91-.59,38.28,38.28,0,0,0,9.13-4.47,12.43,12.43,0,0,0,1.25,1.84,12,12,0,0,0,9.19,4.28h12.51a12,12,0,0,0,11.82-9.93l3.51-20a12,12,0,0,0,10.78-9.88l2-11.54A12,12,0,0,0,371.75,32.49ZM64.14,74.19a31.68,31.68,0,0,1-10.8,6A38.85,38.85,0,0,1,40.63,82.3H39.57A28.61,28.61,0,0,1,17.65,71.18a24.21,24.21,0,0,1-3.87-7.74,62.32,62.32,0,0,1-1.59-7.39,28,28,0,0,1,.38-8.66,45,45,0,0,1,3.75-11.2,43.49,43.49,0,0,1,8.31-11.74,41.64,41.64,0,0,1,14.05-9.26,40.61,40.61,0,0,1,12.66-3.11C52.23,12,53.1,12,54,12a29.4,29.4,0,0,1,7.48.89,31.48,31.48,0,0,1,7.41,2.88,28.22,28.22,0,0,1,4.54,3.15l1.54,1.39L63.85,32A17.88,17.88,0,0,0,51.36,26.9l-.92,0Q43,27.25,35.6,33.31a22.31,22.31,0,0,0-6.22,8.41,23.39,23.39,0,0,0-1.86,9.36,17.26,17.26,0,0,0,1.82,8A15.93,15.93,0,0,0,35.86,66a15.9,15.9,0,0,0,7.19,1.77h.68a18.13,18.13,0,0,0,7-1.71,18.67,18.67,0,0,0,4.32-3,24.13,24.13,0,0,0,2.8-3q.64-.9.87-1.17l0-.09H43.15l17.4-14.88,14.41,0a38.91,38.91,0,0,0-4.58,12.67,35.55,35.55,0,0,0-.25,11A41.89,41.89,0,0,1,64.14,74.19ZM46,40.62l-4.37,3.74a12.74,12.74,0,0,1,1.76-1.88A23.71,23.71,0,0,1,46,40.62Zm68,38.61a25.63,25.63,0,0,1-12.38,3.19,19.77,19.77,0,0,1-11.26-3.19,18.6,18.6,0,0,1-7-8.61q-.21-.54-.39-1.08a34.8,34.8,0,0,0,3.38-10L87.58,52c.23-1.29.45-2.44.64-3.42a2.84,2.84,0,0,0,.06-.31L88.69,46c.06-.3.08-.6.11-.9a30.87,30.87,0,0,1,8.69-7,25.63,25.63,0,0,1,12.38-3.19,19.79,19.79,0,0,1,11.26,3.19,18.49,18.49,0,0,1,5.24,5.26L121,74A30.91,30.91,0,0,1,113.92,79.23Zm17.92,2.43.38-2.2c.44-.51.86-1,1.27-1.58A39.29,39.29,0,0,0,141,60.7a33.1,33.1,0,0,0-1.81-18.61c-.1-.25-.22-.48-.33-.73l4.88-27.84h14l-4.39,25.07c-.27.33-.54.65-.79,1a39.68,39.68,0,0,0-7.52,17.16,33.08,33.08,0,0,0,1.82,18.57l0,0s0,0,0,.05l-1.1,6.26Zm56.93-2.47a25.75,25.75,0,0,1-12.51,3.28A19.8,19.8,0,0,1,165,79.27a18.76,18.76,0,0,1-5.54-5.72l5.19-29.63a30.69,30.69,0,0,1,7.56-5.8A25,25,0,0,1,184.26,35h.36a25.47,25.47,0,0,1,5.15.68,15.47,15.47,0,0,1,3.16,1.12l1.06.54,1.71-9.76,16.46-14.08-8.72,49.74a19.19,19.19,0,0,0-5.57,10.48,17.79,17.79,0,0,0,.41,8Zm23.66,2.32,2-11.39a6.6,6.6,0,0,1,2.46-.47,6.22,6.22,0,0,1,1.09.1l-1.8,10.43a10.49,10.49,0,0,0-.16,1.67,6.85,6.85,0,0,1-1.28.12A5.48,5.48,0,0,1,212.43,81.51Zm50.85-2.18a24.92,24.92,0,0,1-12.09,3.12,19.25,19.25,0,0,1-11.07-3.2L232.93,81a19.6,19.6,0,0,0,.83-3.14A17.17,17.17,0,0,0,231,64.94l8.62-49.76,11.47,9.3-1.78,14,1.22-.53a22,22,0,0,1,3.46-1.1,28,28,0,0,1,5.26-.65h.35a18.76,18.76,0,0,1,10.71,3,18,18,0,0,1,6.26,7.25A36.55,36.55,0,0,0,272,58.78l-.24,1.33q-.08.45-.12.9a33.78,33.78,0,0,0,.63,10.75l0,.15A30.57,30.57,0,0,1,263.28,79.33Zm46.77,1.4a5.17,5.17,0,0,1-.83.26l-1.54.41c-.56.14-1.05.26-1.47.34l-.46.12a.17.17,0,0,0-.13,0h0a23.32,23.32,0,0,1-4.21.41h-.57l-.85-.06-1.4-.15-1-.12-.39-.08a13.9,13.9,0,0,1-3.8-1.25,17.72,17.72,0,0,1-6-4.54,24.34,24.34,0,0,1-1.69-2.54A38,38,0,0,0,290,61.45a33.9,33.9,0,0,0-.13-12.91c.24-.27.48-.54.73-.8l.19-.16c.58-.57,1.21-1.15,1.87-1.74a27.39,27.39,0,0,1,6.65-4.21l.13,0,.28-.1.3-.13.19-.06a22.4,22.4,0,0,1,5.7-1.49H306l1.84-.17h.88a17.61,17.61,0,0,1,6,1h0l0,0a.49.49,0,0,0,.19,0l.58.28.65.3a1.27,1.27,0,0,1,.39.27A18,18,0,0,1,319,43.24l-1.13,6.44a11.9,11.9,0,0,0,5.26,12.09,28,28,0,0,1-1.28,3.74H297s0,0,0,0v0a4.9,4.9,0,0,1,.3.61,9.7,9.7,0,0,0,1,1.66,7.77,7.77,0,0,0,1.69,1.7,4.11,4.11,0,0,0,1.62.64,10.21,10.21,0,0,0,1.86.17,19.23,19.23,0,0,0,6-.89l1-.41,1.32-.53a4.08,4.08,0,0,0,.7-.28L318.76,76A26.29,26.29,0,0,1,310.05,80.73Zm50.49-29h-9.05l-5.24,29.91H333.74L339,51.75h-3.34c0-.18,0-.36-.05-.53s0-.24,0-.35a33.69,33.69,0,0,0-2.09-7.57c-.1-.25-.21-.49-.33-.73l0-.09c-.33-.72-.7-1.44-1.1-2.15l-.08-.12H341l1.28-7.28L357,20.34l-3.48,19.87h9.05Z"/><g id="Gold.Bet"><g id="Gold."><path class="cls-2" d="M43.15,58.81h15.6l0,.09q-.23.27-.87,1.17a24.13,24.13,0,0,1-2.8,3,18.67,18.67,0,0,1-4.32,3,18.13,18.13,0,0,1-7,1.71A15.79,15.79,0,0,1,35.86,66a15.93,15.93,0,0,1-6.52-6.88,17.26,17.26,0,0,1-1.82-8,23.39,23.39,0,0,1,1.86-9.36,22.31,22.31,0,0,1,6.22-8.41Q43,27.24,50.44,26.93A17.87,17.87,0,0,1,63.85,32l11.07-11.7-1.54-1.39a28.22,28.22,0,0,0-4.54-3.15,31.21,31.21,0,0,0-17.5-3.69,40.61,40.61,0,0,0-12.66,3.11,41.64,41.64,0,0,0-14,9.26,43.49,43.49,0,0,0-8.31,11.74,45,45,0,0,0-3.75,11.2,28,28,0,0,0-.38,8.66,62.32,62.32,0,0,0,1.59,7.39,24.21,24.21,0,0,0,3.87,7.74A28.61,28.61,0,0,0,39.57,82.29a39.07,39.07,0,0,0,13.77-2.07,31.68,31.68,0,0,0,10.8-6,37.78,37.78,0,0,0,7.23-8.59,23.74,23.74,0,0,0,3.06-8L75.76,50c.25-1.38.48-2.62.7-3.73l.41-2.34-16.32,0Z"/><path class="cls-2" d="M121.13,38.08a19.79,19.79,0,0,0-11.26-3.19,25.63,25.63,0,0,0-12.38,3.19,31,31,0,0,0-10,8.59,27.17,27.17,0,0,0-5.27,12,21.33,21.33,0,0,0,1.07,12,18.6,18.6,0,0,0,7,8.61,19.77,19.77,0,0,0,11.26,3.19,25.63,25.63,0,0,0,12.38-3.19,31.11,31.11,0,0,0,10-8.61,27.4,27.4,0,0,0,5.28-12,21.3,21.3,0,0,0-1.08-12A18.66,18.66,0,0,0,121.13,38.08Zm-5.54,20.51a11.71,11.71,0,0,1-4.08,7,11.18,11.18,0,0,1-7.44,2.9,7.77,7.77,0,0,1-6.37-2.9,8.29,8.29,0,0,1-1.64-7,11.73,11.73,0,0,1,4.09-7,11.09,11.09,0,0,1,7.39-2.9,7.84,7.84,0,0,1,6.42,2.9A8.35,8.35,0,0,1,115.59,58.59Z"/><polygon class="cls-2" points="143.78 13.52 131.84 81.66 145.83 81.66 157.77 13.52 143.78 13.52"/><path class="cls-2" d="M195.7,27.6,194,37.36l-1.06-.54a15.47,15.47,0,0,0-3.16-1.12,25.47,25.47,0,0,0-5.15-.68,25,25,0,0,0-12.44,3.1,31,31,0,0,0-10,8.68,27.77,27.77,0,0,0-5.28,12A21.09,21.09,0,0,0,158,70.73a18.72,18.72,0,0,0,7,8.54,19.8,19.8,0,0,0,11.29,3.2,25.75,25.75,0,0,0,12.51-3.28l11.35,3,12-68.72Zm-5.41,31.17a11.55,11.55,0,0,1-4.08,6.92,11.16,11.16,0,0,1-7.43,2.88,7.85,7.85,0,0,1-6.42-2.88,8.19,8.19,0,0,1-1.65-6.92,11.63,11.63,0,0,1,4.08-7,11.19,11.19,0,0,1,7.44-2.88,7.85,7.85,0,0,1,6.42,2.88A8.27,8.27,0,0,1,190.29,58.77Z"/><path class="cls-2" d="M220.91,71.45a4.91,4.91,0,0,0-4-1.8,7,7,0,0,0-4.65,1.8,7.27,7.27,0,0,0-2.55,4.36,5.15,5.15,0,0,0,1,4.36,4.94,4.94,0,0,0,4,1.8,7,7,0,0,0,4.65-1.8,7.24,7.24,0,0,0,2.55-4.36A5.13,5.13,0,0,0,220.91,71.45Z"/></g><g id="Bet"><path class="cls-3" d="M270.31,39.21a18.92,18.92,0,0,0-11.06-3,28,28,0,0,0-5.26.65,22,22,0,0,0-3.46,1.1l-1.22.53,1.78-14-11.47-9.3L228,82.23l12.12-3a19.25,19.25,0,0,0,11.07,3.2,24.92,24.92,0,0,0,12.09-3.12A30.44,30.44,0,0,0,273,71a26.32,26.32,0,0,0,5.13-11.62,21,21,0,0,0-1-11.7A18.07,18.07,0,0,0,270.31,39.21Zm-5.62,20.13a11.24,11.24,0,0,1-4,6.75,10.88,10.88,0,0,1-7.24,2.81,7.68,7.68,0,0,1-6.27-2.81,8,8,0,0,1-1.6-6.75,11.29,11.29,0,0,1,4-6.8,10.87,10.87,0,0,1,7.24-2.8,7.66,7.66,0,0,1,6.27,2.8A8,8,0,0,1,264.69,59.34Z"/><path class="cls-3" d="M322.33,47.82l-.12-.24c-.19-.43-.41-.87-.65-1.3-.38-.59-.8-1.18-1.26-1.78l-.07-.08a17.41,17.41,0,0,0-3.64-2.87,1.27,1.27,0,0,0-.39-.27l-.65-.3L315,40.7a.49.49,0,0,1-.19,0l0,0h0a17.61,17.61,0,0,0-6-1h-.88l-1.84.17h-.08a22.4,22.4,0,0,0-5.7,1.49l-.19.06-.3.13-.28.1-.13,0a27.39,27.39,0,0,0-6.65,4.21c-.66.59-1.29,1.17-1.87,1.74l-.19.16a25.31,25.31,0,0,0-3.66,4.82,24.19,24.19,0,0,0-3.1,8.29l-.24,1.34a21.62,21.62,0,0,0,.42,7,12.85,12.85,0,0,0,1,3l.11.32a23.66,23.66,0,0,0,2.27,3.56,17.72,17.72,0,0,0,6,4.54,13.9,13.9,0,0,0,3.8,1.25l.39.08,1,.12,1.4.15.85.06h.57a23.32,23.32,0,0,0,4.21-.41h0a.17.17,0,0,1,.13,0l.46-.12c.42-.08.91-.2,1.47-.34l1.54-.41a5.17,5.17,0,0,0,.83-.26A26.29,26.29,0,0,0,318.76,76l-6.32-7.73a4.08,4.08,0,0,1-.7.28l-1.32.53-1,.41a19.23,19.23,0,0,1-6,.89,10.21,10.21,0,0,1-1.86-.17,4.11,4.11,0,0,1-1.62-.64,7.77,7.77,0,0,1-1.69-1.7,9.7,9.7,0,0,1-1-1.66,4.9,4.9,0,0,0-.3-.61v0s0,0,0,0h24.82a26.22,26.22,0,0,0,1.74-5.83,23.43,23.43,0,0,0,.14-7A22.1,22.1,0,0,0,322.33,47.82Zm-23.41,8.06a8.79,8.79,0,0,1,1-1.4,7.11,7.11,0,0,1,1.35-1.18,8,8,0,0,1,2.08-1,9.34,9.34,0,0,1,2.89-.4,4.32,4.32,0,0,1,2.58.75,5.44,5.44,0,0,1,1.6,1.66,3.42,3.42,0,0,1,.58,1.39Z"/><polygon class="cls-3" points="353.51 40.21 356.99 20.34 342.28 32.92 341 40.21 331.67 40.21 329.65 51.75 338.98 51.75 333.74 81.66 346.25 81.66 351.49 51.75 360.54 51.75 362.56 40.21 353.51 40.21"/></g></g></g></g></svg>