<svg width="16" height="16" viewBox="0 0 16 16" fill="none" xmlns="http://www.w3.org/2000/svg">
<path d="M13.4398 7.44287C13.3149 6.86682 13.1282 6.31458 12.8837 5.79834C14.0006 5.33325 14.75 4.23962 14.75 3C14.75 2.65479 14.4702 2.375 14.125 2.375C13.7798 2.375 13.5 2.65479 13.5 3C13.5 3.802 12.9777 4.48242 12.239 4.70471C11.9012 4.23669 11.521 3.83459 11.1023 3.49854C11.1172 3.37463 11.125 3.24988 11.125 3.125C11.125 1.40186 9.72314 0 8 0C6.27686 0 4.875 1.40186 4.875 3.125C4.875 3.24988 4.88281 3.37463 4.89771 3.49854C4.47961 3.83423 4.09924 4.23608 3.76099 4.70471C3.02234 4.48242 2.5 3.802 2.5 3C2.5 2.65479 2.22021 2.375 1.875 2.375C1.52979 2.375 1.25 2.65479 1.25 3C1.25 4.23914 1.9989 5.33313 3.11633 5.79834C2.87183 6.31458 2.68506 6.86682 2.56018 7.44287C1.11169 7.66992 0 8.92627 0 10.4375C0 10.7827 0.279785 11.0625 0.625 11.0625C0.970215 11.0625 1.25 10.7827 1.25 10.4375C1.25 9.68311 1.72168 9.03723 2.38538 8.77795C2.37866 8.91382 2.375 9.05029 2.375 9.1875C2.375 10.395 2.63306 11.5563 3.11633 12.5765C1.99939 13.0416 1.25 14.1354 1.25 15.375C1.25 15.7202 1.52979 16 1.875 16C2.22021 16 2.5 15.7202 2.5 15.375C2.5 14.573 3.02234 13.8926 3.76099 13.6703C4.79346 15.1005 6.2926 16 8 16C9.70679 16 11.2062 15.101 12.239 13.6703C12.9777 13.8926 13.5 14.573 13.5 15.375C13.5 15.7202 13.7798 16 14.125 16C14.4702 16 14.75 15.7202 14.75 15.375C14.75 14.1359 14.001 13.0419 12.8837 12.5765C13.3669 11.5563 13.625 10.395 13.625 9.1875C13.625 9.05029 13.6213 8.91382 13.6146 8.77795C14.2783 9.03723 14.75 9.68311 14.75 10.4375C14.75 10.7827 15.0298 11.0625 15.375 11.0625C15.7202 11.0625 16 10.7827 16 10.4375C16 8.92627 14.8883 7.66992 13.4398 7.44287ZM7.375 14.693C5.45154 14.3417 3.625 12.2152 3.625 9.1875C3.625 6.5332 5.15479 4.08765 7.375 3.68201V14.693ZM6.16431 2.74255C6.34143 1.89148 7.09717 1.25 8 1.25C8.90283 1.25 9.65857 1.89148 9.83569 2.74255C9.25366 2.50098 8.6355 2.375 8 2.375C7.3645 2.375 6.74634 2.50098 6.16431 2.74255ZM8.625 14.693V3.68201C10.8795 4.09387 12.375 6.57593 12.375 9.1875C12.375 12.2124 10.5509 14.3412 8.625 14.693Z" fill="white"/>
</svg>
