<?xml version="1.0" encoding="UTF-8"?>
<!DOCTYPE svg PUBLIC "-//W3C//DTD SVG 1.1//EN" "http://www.w3.org/Graphics/SVG/1.1/DTD/svg11.dtd">
<!-- Creator: CorelDRAW 2018 (64-Bit) -->
<svg xmlns="http://www.w3.org/2000/svg" xml:space="preserve" width="98.7058mm" height="99.4639mm" version="1.1" shape-rendering="geometricPrecision" text-rendering="geometricPrecision" image-rendering="optimizeQuality" fill-rule="evenodd" clip-rule="evenodd"
viewBox="0 0 1533.03 1544.81"
 xmlns:xlink="http://www.w3.org/1999/xlink">
 <g id="Слой_x0020_1">
  <metadata id="CorelCorpID_0Corel-Layer"/>
  <path fill="#9A9CAA" d="M819.04 340.51c-19.85,-56.06 -2.3,-114.52 33.56,-159.98 26.48,-33.57 35.49,-78.83 16.51,-118.08 -20.63,-42.66 -65.34,-62.44 -111.19,-62.44l-1.43 0c-189.38,0 -368.29,76.57 -506.86,204.5 -139.51,128.79 -230.21,302.37 -246.55,492.13 -19.04,221.08 50.7,433.9 200.91,597.59 145.75,158.84 352.76,250.59 568.4,250.59 111.03,0 220.78,-19.56 323.22,-62.99 89.57,-37.96 169.92,-92.49 237.88,-162.13 62.35,-63.88 112.13,-138 147.13,-220.1 31.83,-74.64 51.2,-156.83 52.36,-238.12 1.48,-103.32 -25.83,-205.95 -94.28,-285.3 -57.37,-66.51 -134.75,-105.06 -220.43,-120.63l-10.06 -1.83 8.47 -5.72c41.25,-27.84 81.81,-56.89 121.07,-87.49 32.97,-25.7 65.39,-52.7 95.67,-81.55 33.19,-31.63 107.37,-104.56 90.86,-157.29 -1.19,-3.8 -2.81,-7.44 -4.8,-10.89 -1.93,-3.34 -4.18,-6.46 -6.78,-9.32 -18.3,-20.15 -49.74,-22.65 -75.18,-21.4 -21.35,1.05 -43.01,4.93 -63.81,9.71 -27.71,6.38 -55.14,14.73 -82.06,23.84 -63.27,21.4 -125.49,47.96 -185.87,76.44 -70.85,33.42 -140.29,70.24 -208.12,109.4 -24.37,14.07 -48.54,28.48 -72.51,43.21l-4.38 2.69 -1.72 -4.85zm5.25 64.33c32.78,-20.66 65.98,-40.68 99.53,-60.05 63.25,-36.52 127.91,-70.93 193.82,-102.41 56.98,-27.21 115.5,-52.66 175.05,-73.74 40.5,-14.34 85.64,-28.53 128.35,-34.38 12.37,-1.69 38.86,-4.42 50.64,1.22l2.74 1.31 -0.41 3.01c-1.41,10.34 -9.81,24.1 -15.49,32.47 -19.3,28.49 -47.02,55.89 -72.21,79.08 -36.69,33.79 -76.26,65.19 -116.3,94.89 -47.8,35.45 -97.22,68.93 -147.5,100.77 -34.07,21.57 -68.6,42.44 -103.52,62.6 -47.49,27.41 -95.74,53.56 -144.71,78.23l-4.26 2.15 -1.55 -4.51c-9.45,-27.58 -21.54,-54.22 -36.12,-79.47 -14.16,-24.52 -30.64,-47.67 -49.13,-69.12l-3.1 -3.6 3.97 -2.6c13.32,-8.73 26.72,-17.35 40.19,-25.85zm-5.06 209.96c-40.19,19.06 -80.97,37.07 -122.35,53.39 -34.47,13.59 -69.67,26.21 -105.31,36.41l-4.31 1.23 -0.91 -4.39c-3.2,-15.38 -8.84,-30.15 -16.69,-43.76 -7.46,-12.92 -16.87,-24.6 -27.84,-34.71l-3.25 -2.99 3.18 -3.06c26.67,-25.74 55.2,-49.89 84.22,-72.93 34.79,-27.63 70.75,-53.9 107.31,-79.14l3.02 -2.08 2.45 2.74c18.33,20.49 34.53,42.86 48.28,66.67 14.18,24.56 25.72,50.59 34.39,77.6l1.11 3.47 -3.29 1.56zm661.4 245.92c-2.32,161.98 -79.22,317.72 -193.92,429.94 -138.48,135.49 -321.85,201.82 -514.34,201.82 -201.02,0 -393.96,-85.57 -529.83,-233.63 -140.15,-152.73 -205.08,-351.44 -187.32,-557.71 30.63,-355.71 343.33,-648.77 701.26,-648.77l1.36 0c25.24,0 52.42,8.66 64.13,32.88 10.26,21.22 3.54,45.1 -10.48,62.88 -39.55,50.14 -60.78,113.88 -50.03,177.7 2.58,15.31 6.97,30.25 13.09,44.52l1.39 3.24 -2.96 1.91c-15.98,10.3 -31.86,20.74 -47.61,31.39 -0.07,0.05 -0.15,0.1 -0.22,0.15 -44.98,30.35 -89.15,62.19 -131.64,95.94 -34.56,27.45 -68.71,56.55 -99.84,87.86l-1.83 1.85 -2.46 -0.84c-40.36,-13.79 -84.26,-9.47 -121.22,11.87 -56.5,32.62 -131.4,177.47 -160.04,237.87 -3.67,7.74 -3.3,16.88 0.98,24.3 4.3,7.45 11.98,12.31 20.55,13 38.77,3.14 78.15,4.78 117.03,4.78 45.86,0 130.33,-2.13 168.99,-24.46 36.1,-20.84 61.56,-55.77 70.37,-96.48l0.54 -2.5 2.47 -0.65c42.8,-11.24 85.22,-26.25 126.38,-42.45 50.75,-19.98 100.68,-42.4 149.71,-66.28 61.12,-29.77 121.16,-61.89 180.03,-95.88 30.53,-17.62 60.74,-35.81 90.63,-54.49l1.11 -0.69 1.31 0.07c0.17,0.01 0.34,0.03 0.43,0.04 137.61,3.95 254.45,61.42 310.48,191.87 22.73,52.92 32.34,111.58 31.52,168.98zm-1205.08 -37.29c20.23,-39.07 82.11,-153.24 118.77,-174.41 28.35,-16.37 62.69,-17.05 91.71,-1.92 16.03,8.36 29.25,21.07 38.28,36.73 9.39,16.28 13.79,34.8 12.6,53.56 -2.02,31.89 -19.76,60.47 -47.43,76.45 -36.64,21.16 -166.5,17.67 -210.43,15.66l-6.5 -0.3 2.99 -5.77zm765.64 -111.69c0,-14.46 -11.72,-26.17 -26.17,-26.17 -14.46,0 -26.17,11.72 -26.17,26.17 0,14.46 11.72,26.17 26.17,26.17 14.46,0 26.17,-11.72 26.17,-26.17zm129.67 226.14c0,64.61 52.57,117.18 117.18,117.18 64.61,0 117.18,-52.57 117.18,-117.18 0,-64.61 -52.57,-117.18 -117.18,-117.18 -64.61,0 -117.18,52.57 -117.18,117.18zm117.18 64.83c-35.75,0 -64.83,-29.08 -64.83,-64.83 0,-35.75 29.08,-64.83 64.83,-64.83 35.75,0 64.83,29.08 64.83,64.83 0,35.75 -29.08,64.83 -64.83,64.83zm-359.85 238.51c0,64.61 52.57,117.18 117.18,117.18 64.61,0 117.18,-52.57 117.18,-117.18 0,-64.61 -52.57,-117.18 -117.18,-117.18 -64.61,0 -117.18,52.57 -117.18,117.18zm117.18 64.83c-35.75,0 -64.83,-29.08 -64.83,-64.83 0,-35.75 29.08,-64.83 64.83,-64.83 35.75,0 64.83,29.08 64.83,64.83 0,35.75 -29.08,64.83 -64.83,64.83zm-481.19 -4.16c0,64.61 52.57,117.18 117.18,117.18 64.61,0 117.17,-52.57 117.17,-117.18 0,-64.61 -52.57,-117.18 -117.17,-117.18 -64.61,0 -117.18,52.57 -117.18,117.18zm117.18 64.83c-35.75,0 -64.83,-29.08 -64.83,-64.83 0,-35.75 29.08,-64.83 64.83,-64.83 35.75,0 64.83,29.08 64.83,64.83 0,35.75 -29.08,64.83 -64.83,64.83zm-420.52 -246.84c0,64.61 52.57,117.18 117.18,117.18 64.61,0 117.18,-52.57 117.18,-117.18 0,-64.61 -52.57,-117.18 -117.18,-117.18 -64.61,0 -117.18,52.57 -117.18,117.18zm117.18 64.83c-35.75,0 -64.83,-29.08 -64.83,-64.83 0,-35.75 29.08,-64.83 64.83,-64.83 35.75,0 64.83,29.08 64.83,64.83 0,35.75 -29.08,64.83 -64.83,64.83zm34.5 -879.95c0,64.61 52.57,117.18 117.18,117.18 64.61,0 117.18,-52.57 117.18,-117.18 0,-64.61 -52.57,-117.18 -117.18,-117.18 -64.61,0 -117.18,52.57 -117.18,117.18zm117.18 64.83c-35.75,0 -64.83,-29.08 -64.83,-64.83 0,-35.75 29.08,-64.83 64.83,-64.83 35.75,0 64.83,29.08 64.83,64.83 -0,35.75 -29.09,64.83 -64.83,64.83zm489.95 476.23c-14.29,-2.12 -27.61,7.77 -29.72,22.06 -9.86,66.55 -69.12,109.04 -129.48,127.57 -40.96,12.58 -86.82,15.34 -129,7.85 -46.11,-8.19 -88.74,-28.71 -120.67,-63.48 -9.76,-10.63 -26.35,-11.34 -36.98,-1.58 -10.63,9.76 -11.34,26.35 -1.58,36.98 38.13,41.52 88.82,67.51 143.81,78.55 20.6,4.14 41.68,6.11 62.69,6.11 32.73,0 65.81,-4.78 97.1,-14.39 80.69,-24.78 152.96,-82.59 165.89,-169.95 2.12,-14.3 -7.76,-27.6 -22.06,-29.72z"/>
 </g>
</svg>
