<?xml version="1.0" encoding="UTF-8"?>
<!DOCTYPE svg PUBLIC "-//W3C//DTD SVG 1.1//EN" "http://www.w3.org/Graphics/SVG/1.1/DTD/svg11.dtd">
<!-- Creator: CorelDRAW 2018 (64-Bit) -->
<svg xmlns="http://www.w3.org/2000/svg" xml:space="preserve" width="144.045mm" height="97.36mm" version="1.1" shape-rendering="geometricPrecision" text-rendering="geometricPrecision" image-rendering="optimizeQuality" fill-rule="evenodd" clip-rule="evenodd"
viewBox="0 0 784.48 530.23"
 xmlns:xlink="http://www.w3.org/1999/xlink">
 <g id="Слой_x0020_1">
  <metadata id="CorelCorpID_0Corel-Layer"/>
  <path fill="#9A9CAA" d="M645.92 398.21c-17.69,0 -34.43,6.9 -46.98,19.38 -12.57,12.49 -19.68,28.88 -19.68,46.63 0,17.78 6.97,34.14 19.65,46.6 12.67,12.45 29.24,19.41 47.01,19.41 36.29,0 65.36,-29.88 65.36,-66.01 0,-36.13 -29.07,-66.01 -65.36,-66.01zm0 113.87c-26.15,0 -48.51,-21.51 -48.51,-47.86 0,-26.35 22.35,-47.86 48.51,-47.86 26.33,0 47.2,21.69 47.2,47.86 0,26.17 -20.88,47.86 -47.2,47.86zm13.93 -359.67c-1.61,-1.52 -3.76,-2.27 -5.96,-2.27l-83.45 0c-4.98,0 -9.08,4.1 -9.08,9.08l0 133.39c0,4.98 4.1,9.08 9.08,9.08l132.41 0c4.98,0 9.08,-4.1 9.08,-9.08l0 -89.3c0,-2.54 -1.1,-4.99 -2.99,-6.69l-49.03 -44.14 -0.06 -0.06zm33.92 131.12l-114.26 0 0 -115.39 70.78 0 43.47 39.12 0 76.27zm-445.09 114.68c-17.69,0 -34.43,6.9 -46.98,19.38 -12.57,12.49 -19.68,28.88 -19.68,46.63 0,17.78 6.97,34.14 19.65,46.6 12.67,12.45 29.24,19.41 47.01,19.41 36.29,0 65.36,-29.88 65.36,-66.01 0,-36.13 -29.07,-66.01 -65.36,-66.01zm0 113.87c-26.15,0 -48.51,-21.51 -48.51,-47.86 0,-26.35 22.35,-47.86 48.51,-47.86 26.33,0 47.2,21.69 47.2,47.86 0,26.17 -20.88,47.86 -47.2,47.86zm-108.5 -93.86l-39.89 0 0 -50.46c0,-4.98 -4.1,-9.08 -9.08,-9.08 -4.98,0 -9.08,4.1 -9.08,9.08l0 59.54c0,4.98 4.1,9.08 9.08,9.08l48.96 0c4.98,0 9.08,-4.1 9.08,-9.08 0,-4.98 -4.1,-9.08 -9.08,-9.08zm75.28 -95.84c0,-4.98 -4.1,-9.08 -9.08,-9.08l-197.31 -0c-4.98,0 -9.08,4.1 -9.08,9.08 0,4.98 4.1,9.08 9.08,9.08l197.31 0c5.06,0 9.08,-4.02 9.08,-9.08zm-173.14 -84.07c-0.02,0 -0.05,0 -0.07,0 -4.96,0 -9.08,3.92 -9.08,8.92l-0 0.13c-0.09,5.04 3.94,9.08 8.96,9.11l197.31 1.14c5.02,0.03 9.11,-4.04 9.2,-9.05 0.09,-5.04 -3.94,-9.08 -8.96,-9.11l-197.31 -1.14c-0.02,0 -0.04,-0 -0.05,-0zm32.95 -55.69l197.31 0c4.98,0 9.08,-4.1 9.08,-9.08 0,-4.98 -4.1,-9.08 -9.08,-9.08l-197.31 -0c-4.98,0 -9.08,4.1 -9.08,9.08 0,4.98 4.1,9.08 9.08,9.08zm709.19 -1.97c-0.12,-2.74 -1.28,-5.5 -3.41,-7.27l-116.47 -96.46c-1.68,-1.39 -3.64,-2.09 -5.83,-2.09l-144.15 -0 0 -65.75c0,-4.98 -4.1,-9.08 -9.08,-9.08l-414.31 0c-4.98,0 -9.08,4.1 -9.08,9.08l0 119.07c0,4.98 4.1,9.08 9.08,9.08 4.98,0 9.08,-4.1 9.08,-9.08l0 -109.99 396.32 0 0 400.06 -140.58 0c-4.98,0 -9.08,4.1 -9.08,9.08 0,4.98 4.1,9.08 9.08,9.08l198.62 0c4.98,0 9.08,-4.1 9.08,-9.08 0,-4.98 -4.1,-9.08 -9.08,-9.08l-39.88 -0 0 -325.23 140.89 0 110.68 91.66 -1.19 233.25 -24.07 0c-4.98,0 -9.08,4.1 -9.08,9.08 0,4.98 4.1,9.08 9.08,9.08l33.02 0c4.98,0 9.05,-3.95 9.08,-8.95l1.3 -246.45z"/>
 </g>
</svg>
