<?xml version="1.0" encoding="UTF-8"?>
<!DOCTYPE svg PUBLIC "-//W3C//DTD SVG 1.1//EN" "http://www.w3.org/Graphics/SVG/1.1/DTD/svg11.dtd">
<!-- Creator: CorelDRAW 2018 (64-Bit) -->
<svg xmlns="http://www.w3.org/2000/svg" xml:space="preserve" width="105.669mm" height="100mm" version="1.1" shape-rendering="geometricPrecision" text-rendering="geometricPrecision" image-rendering="optimizeQuality" fill-rule="evenodd" clip-rule="evenodd"
viewBox="0 0 4374.45 4139.79"
 xmlns:xlink="http://www.w3.org/1999/xlink">
 <g id="Слой_x0020_1">
  <metadata id="CorelCorpID_0Corel-Layer"/>
  <path fill="white" d="M4371.86 3181.89c-5.17,-19.02 -17.71,-35.22 -34.82,-45.01 -207.97,-118.99 -436.68,-195.15 -674.63,-223.6 -229.32,-27.43 -462.35,-9.95 -685.18,50.66 -334.74,91.05 -636.54,276.45 -867.45,535.57l-63.17 70.89 17.02 -93.42c166.74,-914.8 946.57,-1601.08 1876.26,-1649.1l29.51 -1.52 -1.5 29.5c-13.1,258.26 -75.08,508.49 -184.12,742.96 -17.3,37.18 -1.11,81.47 36.07,98.76 37.19,17.3 81.47,1.11 98.76,-36.07 133.51,-287.08 200.63,-594.04 200.63,-910.68 0,-41.07 -33.27,-74.34 -74.34,-74.34 -1191.48,0 -2161.25,968.76 -2162.56,2160.21l-0.01 0.59c-0.09,3.9 0.15,7.82 0.67,11.68 1.13,8.38 3.67,16.5 7.53,24.02 5.12,9.98 12.43,18.65 21.39,25.4 2.89,2.18 5.94,4.16 9.12,5.9l0.45 0.25c270.32,154.28 573.72,235.24 885,235.24 642.78,0 1237.79,-341.7 1558.15,-901.48 9.77,-17.07 12.39,-37.44 7.23,-56.41zm-2210.77 678.6l723.65 -196.91c39.44,-10.73 62.95,-51.8 52.21,-91.25 -10.74,-39.47 -51.79,-62.96 -91.26,-52.22l-723.66 196.91 52.55 -64.42c216.66,-265.59 511.24,-455.48 841.82,-545.36 385.12,-104.7 794.51,-66.83 1153.06,108.96l27.21 13.35 -16.7 25.3c-220.29,333.58 -553.47,573.24 -938.97,678.2 -329.72,89.78 -681.43,75.24 -1001.98,-43.65l-77.94 -28.91zm-746.67 -962.74c-49.6,-220.53 -77.44,-447.77 -89.66,-673.36l-1.65 -30.56 30.5 2.54c218.74,18.22 438.32,27.22 657.81,27.22 19.71,0 39.44,-0.08 59.15,-0.23 41.07,-0.31 74.09,-33.83 73.77,-74.91 -0.31,-40.97 -33.59,-74.33 -74.74,-73.77 -19.39,0.27 -38.79,0.22 -58.19,0.22 -223.26,0 -446.62,-9.48 -669.06,-28.68l-24.08 -2.07 -0.3 -24.16c-0.26,-21.08 -0.39,-42.17 -0.39,-63.26 0,-238.7 16.32,-478.95 53.61,-714.82l4.05 -25.63 25.73 3.35c165.91,21.61 333.29,32.17 500.6,32.17 203.24,0 406.89,-15.11 607.84,-45.56l26.1 -3.95 4.22 26.06c24.64,152.24 40.3,306.08 48.75,460.05 2.24,40.74 37.51,72.42 78.28,70.15 40.82,-2.27 72.42,-37.47 70.18,-78.3 -8.8,-160.19 -25.48,-320.29 -51.33,-478.64l-4.12 -25.28 25.1 -5.14c245.75,-50.35 489.97,-125.46 717.83,-230.95l0.01 -0c0.22,-0.11 0.45,-0.22 0.68,-0.32l20.67 -9.63 12.72 18.93c86.12,128.19 155.4,267.05 206.17,412.89 13.5,38.78 55.87,59.27 94.66,45.78 38.79,-13.49 59.26,-55.87 45.76,-94.64 -273.46,-785.7 -1016.32,-1313.16 -1848.39,-1313.23 -1078.93,0 -1956.69,877.82 -1956.69,1956.74 0,444.68 145.35,864.21 421.24,1212.98 266.5,336.9 642.25,580.99 1059.01,685.27 5.92,1.48 12.01,2.25 18.12,2.25 34.02,0 63.77,-23.27 72.04,-56.31 9.92,-39.66 -14.41,-80.25 -54.07,-90.17 -291.13,-72.84 -558.75,-216 -780.27,-418.52l-31.67 -28.95 39.97 -15.58c174.79,-68.13 356.84,-118.89 541.15,-153.57l23.85 -4.49 6.71 23.32c21.58,74.93 46.16,149.12 74.53,221.76 14.92,38.21 58.09,57.12 96.29,42.2 38.2,-14.92 57.11,-58.09 42.2,-96.28 -23.59,-60.39 -44.4,-121.88 -62.95,-184l-9.02 -30.22 31.3 -3.87c59.09,-7.32 118.38,-13.02 177.77,-17.12 40.79,-2.81 71.85,-38.5 69.04,-79.29 -2.81,-40.83 -38.42,-71.86 -79.25,-69.04 -70.89,4.9 -141.63,11.97 -212.09,21.25l-24.15 3.18 -5.35 -23.77zm1907.34 -2074.27c-204.65,90.39 -423.36,155.42 -642.3,200.46l-25.81 5.31 -5.61 -25.75c-36.62,-167.93 -85.71,-337.38 -154.27,-495.21 -40.76,-93.86 -89.54,-187.03 -150.11,-269.75l-42.69 -58.28 70.32 16.58c373.63,88.06 710.41,293.53 959.96,584.91l23.34 27.25 -32.82 14.49zm-1365.07 -674.8c133.08,0 242.92,136.12 306.63,238.21 116.68,186.98 190.92,426.68 238.16,640.51l6.15 27.86 -28.22 4.26c-190.94,28.78 -384.7,43.59 -577.82,43.59 -157.2,0 -314.45,-9.67 -470.4,-29.47l-28.84 -3.66 6.13 -28.42c46.47,-215.37 119.52,-456.85 234.68,-646.24 64.7,-106.39 175.6,-246.64 313.53,-246.64zm-1802.74 1669.25c22.91,-300.2 120.43,-588.68 284.04,-841.37l12.32 -19.02 20.76 9.08c234.04,102.34 481.15,175.32 732.17,221.87l25.54 4.73 -4.06 25.66c-38.56,243.37 -55.8,491.53 -55.8,737.86 0,14.15 0.05,28.3 0.18,42.46l0.26 30.14 -29.95 -3.41c-325.19,-37.02 -649.54,-95.47 -965.77,-180.21l-21.37 -5.73 1.68 -22.06zm1020.83 384.09c11.57,239.94 40.21,481.69 92.06,716.38l5.92 26.77 -26.93 5.17c-216.28,41.56 -429.89,104.35 -632.79,190.25l-17.97 7.61 -12.69 -14.83c-264.64,-309.35 -416.3,-697.62 -432.29,-1104.47l-1.41 -35.86 34.74 9c317.23,82.14 641.99,138.91 967.63,174.75l22.62 2.49 1.1 22.74zm-612.33 -1395.21c251.62,-304.55 596.17,-520.23 981.24,-610.54l70.69 -16.58 -43.15 58.4c-80.06,108.34 -140.93,235.66 -188.53,361.24 -51.85,136.82 -91.1,279.29 -121.52,422.32l-5.41 25.41 -25.55 -4.74c-224.9,-41.7 -446.43,-105.53 -657.51,-193.92l-33.15 -13.88 22.89 -27.7z"/>
 </g>
</svg>
