<?xml version="1.0" encoding="UTF-8"?>
<!DOCTYPE svg PUBLIC "-//W3C//DTD SVG 1.1//EN" "http://www.w3.org/Graphics/SVG/1.1/DTD/svg11.dtd">
<!-- Creator: CorelDRAW 2018 (64-Bit) -->
<svg xmlns="http://www.w3.org/2000/svg" xml:space="preserve" width="161.925mm" height="161.925mm" version="1.1" shape-rendering="geometricPrecision" text-rendering="geometricPrecision" image-rendering="optimizeQuality" fill-rule="evenodd" clip-rule="evenodd"
viewBox="0 0 790.4 790.4"
 xmlns:xlink="http://www.w3.org/1999/xlink">
 <g id="Слой_x0020_1">
  <metadata id="CorelCorpID_0Corel-Layer"/>
  <path fill="#9A9CAA" d="M790.4 395.2c0,-218.26 -176.94,-395.2 -395.2,-395.2 -218.26,0 -395.2,176.94 -395.2,395.2 0,218.26 176.94,395.2 395.2,395.2 218.26,0 395.2,-176.94 395.2,-395.2zm-754.47 0c0,-198.43 160.85,-359.27 359.27,-359.27 198.43,0 359.27,160.85 359.27,359.27 0,198.43 -160.85,359.27 -359.27,359.27 -198.43,0 -359.27,-160.85 -359.27,-359.27z"/>
  <path fill="#9A9CAA" d="M405.46 551.4l0 -156.41 51.61 0 8.15 -51.83 -59.77 0 0 -25.99c0,-13.52 4.43,-26.43 23.85,-26.43l38.8 0 0 -51.73 -55.08 0c-46.31,0 -58.95,30.5 -58.95,72.77l0 31.36 -31.78 0 0 51.86 31.78 0 0 156.41 51.39 0 0 0z"/>
 </g>
</svg>
