<?xml version="1.0" encoding="UTF-8"?>
<!DOCTYPE svg PUBLIC "-//W3C//DTD SVG 1.1//EN" "http://www.w3.org/Graphics/SVG/1.1/DTD/svg11.dtd">
<!-- Creator: CorelDRAW 2018 (64-Bit) -->
<svg xmlns="http://www.w3.org/2000/svg" xml:space="preserve" width="92.587mm" height="100.4mm" version="1.1" shape-rendering="geometricPrecision" text-rendering="geometricPrecision" image-rendering="optimizeQuality" fill-rule="evenodd" clip-rule="evenodd"
viewBox="0 0 844.73 916"
 xmlns:xlink="http://www.w3.org/1999/xlink">
 <g id="Слой_x0020_1">
  <metadata id="CorelCorpID_0Corel-Layer"/>
  <path fill="#9A9CAA" d="M437.51 561.31c8.39,0 15.19,6.8 15.19,15.19 0,8.39 -6.8,15.19 -15.19,15.19l-53.46 -0c-8.39,0 -15.19,-6.8 -15.19,-15.19 0,-8.39 6.8,-15.19 15.19,-15.19l53.46 0zm222.74 -481.12c52.59,0 95.38,42.79 95.38,95.38 0,52.59 -42.79,95.38 -95.38,95.38 -52.59,0 -95.38,-42.79 -95.38,-95.38 0,-52.59 42.79,-95.38 95.38,-95.38zm-94.29 457.06c-51.45,-6.99 -90.18,-51.19 -90.18,-103.3 0,-52.48 39.27,-96.9 91.17,-103.44 6.34,-21.53 26.21,-36.48 48.76,-36.48l89.1 0c22.55,0 42.42,14.95 48.76,36.48 51.9,6.54 91.17,50.96 91.17,103.44 0,52.11 -38.73,96.32 -90.18,103.3 -2.94,19.56 -11.91,37.67 -25.65,51.92l0 293.83c0,6.54 -4.18,12.34 -10.39,14.41l-53.46 17.82c-1.55,0.52 -3.17,0.78 -4.81,0.78 -6.53,0 -12.34,-4.18 -14.41,-10.39 -2.65,-7.96 1.65,-16.56 9.61,-19.21l43.07 -14.36 0 -261.66c-12.07,5.31 -25.06,8.03 -38.27,8.03 -13.21,0 -26.2,-2.72 -38.27,-8.03l0 272.6c0,6.54 -4.18,12.34 -10.39,14.41l-53.46 17.82c-1.55,0.52 -3.17,0.78 -4.81,0.78 -6.53,0 -12.34,-4.18 -14.41,-10.39 -2.65,-7.96 1.65,-16.56 9.61,-19.21l43.07 -14.36 0 -282.88c-13.73,-14.25 -22.71,-32.35 -25.65,-51.92zm-128.45 -537.25c8.39,0 15.19,6.8 15.19,15.19l-0 507.85c0,8.39 -6.8,15.19 -15.19,15.19l-422.32 -0c-8.39,0 -15.19,-6.8 -15.19,-15.19l0 -507.85c0,-8.39 6.8,-15.19 15.19,-15.19l422.32 0zm222.74 240.56c35.84,0 65,-29.16 65,-65 0,-35.84 -29.16,-65 -65,-65 -35.84,0 -65,29.16 -65,65 0,35.84 29.16,65 65,65zm-95.38 265.7l0 -144.63c-34.01,7.13 -58.72,37.32 -58.72,72.31 0,34.99 24.71,65.19 58.72,72.31zm158.58 31.97l-126.41 0c6.96,29.03 33.12,49.81 63.21,49.81 30.09,0 56.24,-20.78 63.2,-49.81zm1.79 -30.38l0 -163c0,-11.28 -9.17,-20.45 -20.45,-20.45l-89.1 0c-11.28,0 -20.45,9.17 -20.45,20.45l0 163 130 0zm30.38 -1.59c34.01,-7.13 58.72,-37.32 58.72,-72.32 0,-34.99 -24.71,-65.19 -58.72,-72.31l0 144.63zm-333.31 1.59l0 -477.47 -391.94 0 0 477.47 391.94 0zm-77.51 -342.77c-5.84,3.47 -12.02,6.4 -18.31,8.92 -30.62,12.25 -67.34,16.74 -100.14,16.74 -32.8,0 -69.52,-4.5 -100.14,-16.74 -6.29,-2.52 -12.48,-5.45 -18.31,-8.92l0 104.03c0,6.36 8.89,12.86 13.61,15.82 11.65,7.29 26.5,12.13 39.93,15.32 9.49,-27.57 35.56,-46.33 64.92,-46.33 29.36,0 55.42,18.76 64.92,46.33 13.43,-3.2 28.27,-8.03 39.93,-15.32 4.73,-2.96 13.61,-9.46 13.61,-15.82l0 -26.73c0,-8.39 6.8,-15.19 15.19,-15.19 8.39,0 15.19,6.8 15.19,15.19l0 173.74c0,26.53 -26.98,43.22 -48.69,51.9 -30.62,12.25 -67.34,16.74 -100.14,16.74 -32.8,0 -69.52,-4.49 -100.14,-16.74 -21.71,-8.68 -48.69,-25.38 -48.69,-51.9l0 -294.02c0,-0.51 0.03,-1.02 0.08,-1.53 1.05,-25.71 27.35,-41.87 48.61,-50.38 30.62,-12.25 67.34,-16.74 100.14,-16.74 32.8,0 69.52,4.49 100.14,16.74 21.27,8.51 47.57,24.67 48.61,50.38 0.05,0.51 0.08,1.01 0.08,1.52l0 66.82c0,8.39 -6.8,15.19 -15.19,15.19 -8.39,0 -15.19,-6.8 -15.19,-15.19l-0 -23.84zm-156.57 154.22c-0.09,1.09 -0.15,2.18 -0.15,3.27 0,21.1 17.17,38.27 38.27,38.27 21.1,0 38.27,-17.17 38.27,-38.27 0,-1.09 -0.06,-2.18 -0.15,-3.27 -0,-0.04 -0.01,-0.08 -0.01,-0.12 -1.74,-19.69 -18.33,-34.88 -38.11,-34.88 -19.78,0 -36.37,15.19 -38.11,34.88 -0,0.04 -0.01,0.08 -0.01,0.13zm-30.05 11.38c-17.06,-3.76 -35.14,-9.5 -50.29,-18.47l0 103.91c0,11 23.26,21.35 31.43,24.47 26.73,10.21 58.59,13.8 87.02,13.8 28.43,0 60.3,-3.59 87.02,-13.8 8.17,-3.12 31.43,-13.47 31.43,-24.47l0 -103.91c-15.15,8.97 -33.23,14.71 -50.29,18.47 -4.06,34.37 -33.39,60.53 -68.17,60.53 -34.77,0 -64.1,-26.16 -68.17,-60.53zm68.17 -170.31c28.43,0 60.3,-3.59 87.02,-13.8 8.17,-3.12 31.43,-13.47 31.43,-24.47 0,-11 -23.26,-21.35 -31.43,-24.47 -26.73,-10.21 -58.59,-13.8 -87.02,-13.8 -28.43,0 -60.3,3.59 -87.02,13.8 -8.17,3.12 -31.43,13.47 -31.43,24.47 0,11 23.26,21.35 31.43,24.47 26.73,10.21 58.59,13.8 87.02,13.8z"/>
 </g>
</svg>
