<?xml version="1.0" encoding="UTF-8"?>
<!DOCTYPE svg PUBLIC "-//W3C//DTD SVG 1.1//EN" "http://www.w3.org/Graphics/SVG/1.1/DTD/svg11.dtd">
<!-- Creator: CorelDRAW 2018 (64-Bit) -->
<svg xmlns="http://www.w3.org/2000/svg" xml:space="preserve" width="100.113mm" height="100mm" version="1.1" shape-rendering="geometricPrecision" text-rendering="geometricPrecision" image-rendering="optimizeQuality" fill-rule="evenodd" clip-rule="evenodd"
viewBox="0 0 16865.03 16845.96"
 xmlns:xlink="http://www.w3.org/1999/xlink">
 <g id="Слой_x0020_1">
  <metadata id="CorelCorpID_0Corel-Layer"/>
  <path fill="#9A9CAA" d="M10968.74 15778.2l-10462.64 0c-278.75,0 -506.1,-227.37 -506.1,-506.1l0 -12390.24 2733.61 -2733.61c98.57,-98.57 218.49,-148.24 357.88,-148.24l8376.62 0c278.75,0 506.1,227.35 506.1,506.1l0 6558.4 2221.53 0c262.17,0 479.44,197.87 503.88,458.92 84.45,901.75 804.73,1622.05 1706.5,1706.5 261.01,24.44 458.92,241.71 458.92,503.86l0 1081.38c0,2591.7 -1519.03,4929.15 -3878.36,5985.05 -136.44,61.05 -277.37,60.98 -413.75,-0.13 -581.59,-260.62 -1121.2,-605.6 -1604.17,-1021.88zm-9881.91 -1592.95l0 -3897.52c0,-278.75 227.35,-506.1 506.1,-506.1l6071.22 0c278.75,0 506.1,227.35 506.1,506.1l0 3897.52c0,278.73 -227.35,506.1 -506.1,506.1l-6071.22 0c-278.75,0 -506.1,-227.37 -506.1,-506.1zm168.7 -5490.47l6746.03 0c92.91,0 168.7,75.77 168.7,168.7l0 224.91c0,92.92 -75.79,168.71 -168.7,168.71l-6746.03 0.02c-92.92,0 -168.7,-75.79 -168.7,-168.71l0 -224.93c0,-92.92 75.77,-168.7 168.7,-168.7zm0 -1086.85l6746.03 0c92.91,0 168.7,75.77 168.7,168.7l0 224.93c0,92.92 -75.79,168.71 -168.7,168.71l-6746.03 0c-92.92,0 -168.7,-75.79 -168.7,-168.71l0 -224.93c0,-92.92 75.77,-168.7 168.7,-168.7zm0 -1086.83l6746.03 0c92.91,0 168.7,75.77 168.7,168.7l0 224.91c0,92.92 -75.79,168.71 -168.7,168.71l-6746.03 0c-92.92,0 -168.7,-75.79 -168.7,-168.71l0 -224.91c0,-92.92 75.77,-168.7 168.7,-168.7zm0 -1086.85l224.93 0c92.92,0 168.71,75.77 168.71,168.7l0 224.91c0,92.92 -75.79,168.71 -168.71,168.71l-224.93 0c-92.92,0 -168.7,-75.79 -168.7,-168.71l0 -224.91c0,-92.92 75.77,-168.7 168.7,-168.7zm1086.85 0l5659.18 0c92.91,0 168.7,75.77 168.7,168.7l0 224.91c0,92.92 -75.79,168.71 -168.7,168.71l-5659.18 0c-92.92,0 -168.7,-75.79 -168.7,-168.71l0 -224.91c0,-92.92 75.77,-168.7 168.7,-168.7zm-693.21 4909.72l0 3785.07 5958.75 0 0 -3785.07 -5958.75 0zm12312.06 664.78c459.79,363.11 730.12,911.65 730.12,1499.48 0,1053.71 -857.73,1911.44 -1911.44,1911.44 -1053.71,0 -1911.43,-857.73 -1911.43,-1911.44 0,-1053.71 857.71,-1911.44 1911.43,-1911.44 236.85,0 469.72,45.03 690.26,130.79l618.94 -1444.36c36.59,-85.39 136.06,-125.2 221.47,-88.63l206.58 88.47c85.43,36.59 125.27,136.1 88.66,221.54l-644.59 1504.14zm-233.06 543.4l-743.28 1734.51c-20.42,47.67 -57.24,80.47 -106.99,95.25 -49.73,14.79 -98.48,7.43 -141.66,-21.34l-795.06 -530.09c-77.29,-51.53 -98.31,-156.62 -46.78,-233.94l124.78 -187.16c51.53,-77.31 156.62,-98.33 233.92,-46.8l401.47 267.6 592.93 -1383.1c-150.13,-56.1 -306.92,-87.97 -467.59,-87.97 -743.85,0 -1349.11,605.26 -1349.11,1349.11 0,743.85 605.26,1349.11 1349.11,1349.11 743.85,0 1349.13,-605.22 1349.13,-1349.09 0,-361.31 -144.89,-702.49 -400.87,-956.08zm-12768.28 -8835.02l1757.22 0 0 -1757.22 -1757.22 1757.22zm689.29 562.34l0 1067.93 8675.87 0 0 -2698.22 -7045.61 0.02 0 1124.16c0,278.73 -227.37,506.1 -506.1,506.1l-1124.16 0zm-1086.85 0l0 11936.41 9829.91 0c-1092.34,-1205.99 -1697.45,-2770.86 -1697.45,-4400.7l0 -1081.36c0,-262.17 197.87,-479.44 458.92,-503.88 901.75,-84.45 1622.05,-804.73 1706.51,-1706.5 24.44,-261.01 241.69,-458.92 503.85,-458.92l47.84 0 0 -6502.19 -8132.46 0.02 0 524.52 7101.84 0c278.75,0 506.1,227.35 506.1,506.1l0 2810.66c0,278.73 -227.35,506.1 -506.1,506.1l-8788.34 0c-278.75,0 -506.1,-227.37 -506.1,-506.1l0 -1124.16 -524.52 0zm15740.4 7545.16l-0.27 0 0 -1040.1c-1129.34,-129.17 -2028.22,-1028.09 -2157.41,-2157.41l-2730.51 0c-129.17,1129.32 -1028.11,2028.24 -2157.43,2157.41l0 1030.65c0,2357.49 1375.24,4490.26 3522.81,5461.68 2144.63,-970.34 3519.14,-3098.38 3522.81,-5452.23z"/>
 </g>
</svg>
