<?xml version="1.0" encoding="UTF-8"?>
<!DOCTYPE svg PUBLIC "-//W3C//DTD SVG 1.1//EN" "http://www.w3.org/Graphics/SVG/1.1/DTD/svg11.dtd">
<!-- Creator: CorelDRAW 2018 (64-Bit) -->
<svg xmlns="http://www.w3.org/2000/svg" xml:space="preserve" width="84.5932mm" height="100mm" version="1.1" shape-rendering="geometricPrecision" text-rendering="geometricPrecision" image-rendering="optimizeQuality" fill-rule="evenodd" clip-rule="evenodd"
viewBox="0 0 1971.36 2330.41"
 xmlns:xlink="http://www.w3.org/1999/xlink">
 <g id="Слой_x0020_1">
  <metadata id="CorelCorpID_0Corel-Layer"/>
  <g id="_1951512787488">
   <g id="_044---Painting">
    <path id="Shape" fill="#9A9CAA" d="M1144.93 232.99l-271.85 0c0,-64.34 -52.16,-116.5 -116.51,-116.5 -0.01,-32.66 -13.72,-63.81 -37.8,-85.88 -24.08,-22.06 -56.31,-33.01 -88.84,-30.16 -59.57,6.48 -105.08,56.14 -106.37,116.04 -64.34,0 -116.5,52.16 -116.5,116.5l-271.85 0c-42.9,0 -77.67,34.77 -77.67,77.67l0 1245.45c-21.74,5.84 -39.88,20.81 -49.72,41.05 -9.84,20.24 -10.42,43.76 -1.58,64.46l83.19 194.18c12.23,28.58 40.33,47.11 71.42,47.11l268.43 0 -136.39 375.07c-7.34,20.16 3.06,42.45 23.22,49.79 20.16,7.34 42.45,-3.06 49.79,-23.22l146.02 -401.63 89.32 0 0 388.35c0,21.45 17.39,38.84 38.84,38.84 21.45,0 38.84,-17.39 38.84,-38.84l0 -388.35 89.32 0 146.02 401.63c4.75,13.04 16.09,22.56 29.76,24.97 13.67,2.41 27.58,-2.65 36.5,-13.28 8.92,-10.63 11.5,-25.21 6.75,-38.26l-136.39 -375.07 268.47 0c31.07,-0.01 59.15,-18.54 71.38,-47.11l83.23 -194.18c8.84,-20.71 8.25,-44.23 -1.6,-64.47 -9.85,-20.24 -28,-35.22 -49.74,-41.04l0 -1245.45c0,-42.9 -34.77,-77.67 -77.67,-77.67l0 -0zm-660.2 0c0,-21.45 17.38,-38.84 38.83,-38.84l38.83 0c21.45,0 38.84,-17.39 38.84,-38.84l0 -34.49c-1.81,-16.49 7.07,-32.31 22.08,-39.37 15.01,-7.06 32.86,-3.8 44.41,8.11 13.63,13.16 11.18,24.08 11.18,65.75 0,21.45 17.39,38.83 38.84,38.83l38.84 0c21.45,0 38.83,17.39 38.83,38.84l0 77.67c0,21.45 -17.38,38.84 -38.83,38.84l-233.01 -0c-21.45,0 -38.83,-17.38 -38.83,-38.83l0 -77.67zm-349.52 77.67l271.85 0c0,64.34 52.16,116.5 116.51,116.5l233.01 0c64.34,0 116.5,-52.16 116.5,-116.5l271.85 0 0 1242.73 -155.34 0 0 -233.01c-0.18,-138.46 -82,-263.79 -208.7,-319.65 79.59,-60.46 111.72,-164.97 79.83,-259.7 -31.9,-94.73 -120.69,-158.53 -220.65,-158.53 -99.95,0 -188.75,63.8 -220.65,158.53 -31.89,94.73 0.23,199.24 79.83,259.7 -126.68,55.87 -208.5,181.19 -208.7,319.65l0 233.01 -155.34 0 0 -1242.73zm660.2 1009.72c-21.45,0 -38.83,17.39 -38.83,38.84l0 194.18 -233.01 0 0 -194.18c0,-21.45 -17.38,-38.84 -38.83,-38.84 -21.45,0 -38.84,17.39 -38.84,38.84l0 194.18 -77.67 0 0 -233.01c0,-150.14 121.71,-271.85 271.85,-271.85 150.14,0 271.85,121.71 271.85,271.85l0 233.01 -77.67 0 0 -194.18c0,-21.45 -17.38,-38.84 -38.84,-38.84zm-310.68 -504.86c0,-85.79 69.55,-155.34 155.34,-155.34 85.79,0 155.34,69.55 155.34,155.34 0,85.79 -69.55,155.34 -155.34,155.34 -85.79,0 -155.34,-69.55 -155.34,-155.34zm634.61 1009.72l-958.53 0 -83.19 -194.18 1124.94 0 -83.23 194.18z"/>
    <circle id="Oval" fill="#9A9CAA" cx="640.07" cy="271.82" r="38.84"/>
    <path id="Shape_0" fill="#9A9CAA" d="M795.41 1669.89l-310.68 0c-21.45,0 -38.84,17.38 -38.84,38.84 0,21.45 17.39,38.83 38.84,38.83l310.68 0c21.45,0 38.84,-17.38 38.84,-38.83 0,-21.45 -17.38,-38.84 -38.84,-38.84z"/>
    <path id="Shape_1" fill="#9A9CAA" d="M1330.8 512.6c-49.79,87.42 -51.54,319.38 50.49,420.55 21.67,21.68 45.99,40.54 72.39,56.12 -42.12,395.34 -45.3,793.87 -9.48,1189.84 8.42,85.94 80.74,151.42 167.09,151.3 86.35,-0.12 158.48,-65.81 166.66,-151.77 35.93,-397.5 32.57,-797.58 -10.02,-1194.42 93.4,-49.28 250.14,-188.43 190.1,-556.39 -31.73,-194.45 -99.88,-325.01 -202.53,-388.01 -61.15,-37.96 -135.2,-49.19 -204.86,-31.07 -19.6,6.23 -30.95,26.67 -25.87,46.6 2.17,8.66 17.28,100.97 18.21,110.1 12.97,194.6 -129.4,178.41 -212.2,347.15zm385.25 794.03c-68.84,18.36 -141.29,18.36 -210.14,0 5.36,-99.26 13.12,-198.31 23.3,-297.13l163.11 0c10.48,98.9 18.39,198 23.73,297.29l0 -0.16zm-15.53 864.01c-4.32,46.1 -42.93,81.4 -89.24,81.58 -46.31,0.18 -85.19,-34.81 -89.87,-80.88 -23.47,-260.95 -29.8,-523.16 -18.95,-784.94 71.49,15.77 145.56,15.77 217.05,0 10.84,261.62 4.51,523.68 -18.95,784.47l-0.04 -0.23zm-8 -1238.61l-174.45 0c-31.71,-10.28 -60.08,-28.9 -82.14,-53.9 -58.25,-57.55 -66.53,-178.26 -56.16,-264.08 2.36,-16.94 6.85,-33.51 13.36,-49.32 143.22,-34.68 167.96,57.9 308.93,57.9 71.82,-0.17 140.43,-29.81 189.79,-81.98 17.79,323.54 -171.81,384.39 -199.34,391.38l0 0zm-83.07 -854.38c166.68,-5.83 241.83,188.66 270.18,354.18 -32.6,58.84 -89.87,99.96 -156.04,112.04 -108.74,10.8 -153.71,-66.52 -277.13,-64.31 79.69,-89.32 214.99,-133.94 162.99,-401.91z"/>
   </g>
  </g>
 </g>
</svg>
