<?xml version="1.0" encoding="UTF-8"?>
<!DOCTYPE svg PUBLIC "-//W3C//DTD SVG 1.1//EN" "http://www.w3.org/Graphics/SVG/1.1/DTD/svg11.dtd">
<!-- Creator: CorelDRAW 2018 (64-Bit) -->
<svg xmlns="http://www.w3.org/2000/svg" xml:space="preserve" width="161.925mm" height="161.925mm" version="1.1" shape-rendering="geometricPrecision" text-rendering="geometricPrecision" image-rendering="optimizeQuality" fill-rule="evenodd" clip-rule="evenodd"
viewBox="0 0 633.51 633.51"
 xmlns:xlink="http://www.w3.org/1999/xlink">
 <g id="Слой_x0020_1">
  <metadata id="CorelCorpID_0Corel-Layer"/>
  <path fill="#9A9CAA" d="M438.08 266.82c0.73,16.67 0.62,33.28 0.62,49.96 0,13.91 0.11,27.93 -0.38,41.83 -0.1,2.71 -0.21,5.42 -0.33,8.13 -0.45,10.32 -1.95,19.99 -5.69,29.66 -6.38,16.5 -19.44,29.54 -35.93,35.93 -9.64,3.74 -19.36,5.23 -29.66,5.69 -2.71,0.12 -5.42,0.24 -8.13,0.33 -13.9,0.49 -27.92,0.38 -41.83,0.38 -13.91,0 -27.93,0.12 -41.83,-0.38 -2.71,-0.1 -5.42,-0.21 -8.13,-0.33 -10.35,-0.46 -19.95,-1.98 -29.65,-5.69 -8.16,-3.11 -15.56,-7.98 -21.74,-14.15 -6.21,-6.21 -11.05,-13.58 -14.2,-21.78 -3.71,-9.68 -5.23,-19.33 -5.69,-29.65 -0.12,-2.71 -0.24,-5.42 -0.33,-8.13 -0.49,-13.9 -0.38,-27.92 -0.38,-41.83 0,-13.9 -0.11,-27.92 0.41,-41.82 0.1,-2.73 0.23,-5.46 0.35,-8.19 0.47,-10.33 1.99,-19.96 5.69,-29.65 3.11,-8.16 7.93,-15.61 14.15,-21.73 6.15,-6.3 13.57,-11.06 21.79,-14.21 9.68,-3.71 19.33,-5.23 29.65,-5.69 2.71,-0.12 5.42,-0.24 8.13,-0.33 13.9,-0.49 27.92,-0.38 41.83,-0.38 13.9,0 27.92,-0.11 41.82,0.41 2.73,0.1 5.46,0.23 8.19,0.35 10.33,0.47 19.96,1.99 29.65,5.69 8.16,3.11 15.61,7.93 21.73,14.15 6.3,6.15 11.06,13.57 14.21,21.79 3.71,9.68 5.23,19.33 5.69,29.66zm-23.52 98.9c0.12,-2.72 0.24,-5.44 0.34,-8.15 0.48,-13.52 0.37,-27.16 0.37,-40.69 0,-13.55 0.11,-27.21 -0.37,-40.75 -0.1,-2.71 -0.22,-5.43 -0.34,-8.14 -0.34,-7.74 -1.36,-14.95 -4.11,-22.21 -1.94,-5.13 -4.91,-9.77 -8.85,-13.62 -3.8,-3.94 -8.49,-6.9 -13.6,-8.83 -7.28,-2.75 -14.45,-3.77 -22.21,-4.11 -2.69,-0.12 -5.38,-0.24 -8.08,-0.33 -13.56,-0.49 -27.25,-0.37 -40.82,-0.37 -13.55,0 -27.21,-0.11 -40.75,0.37 -2.71,0.1 -5.43,0.22 -8.14,0.34 -7.75,0.34 -14.95,1.37 -22.21,4.11 -5.13,1.94 -9.77,4.91 -13.62,8.85 -3.97,3.79 -6.94,8.47 -8.88,13.6 -2.75,7.27 -3.76,14.45 -4.11,22.21 -0.12,2.69 -0.24,5.38 -0.33,8.07 -0.49,13.56 -0.37,27.25 -0.37,40.82 0,13.55 -0.11,27.21 0.37,40.75 0.1,2.71 0.22,5.43 0.34,8.14 0.34,7.74 1.36,14.95 4.11,22.21 1.94,5.13 4.91,9.77 8.85,13.62 3.8,3.94 8.49,6.9 13.6,8.83 7.27,2.75 14.45,3.76 22.21,4.11 2.69,0.12 5.38,0.24 8.07,0.33 13.56,0.49 27.25,0.37 40.82,0.37 13.55,0 27.21,0.11 40.75,-0.37 2.71,-0.1 5.43,-0.22 8.14,-0.34 7.66,-0.34 15.03,-1.33 22.2,-4.11 10.32,-3.99 18.52,-12.18 22.51,-22.51 2.78,-7.19 3.77,-14.53 4.11,-22.21zm-97.76 -112.02c34.83,0 63.08,28.25 63.08,63.08 0,34.83 -28.25,63.08 -63.08,63.08 -34.83,0 -63.08,-28.26 -63.08,-63.08 0,-34.83 28.26,-63.08 63.08,-63.08zm80.07 -1.6c0,8.5 -6.89,15.38 -15.38,15.38 -8.49,0 -15.38,-6.89 -15.38,-15.38 0,-8.5 6.89,-15.38 15.38,-15.38 8.5,0 15.38,6.89 15.38,15.38zm-80.07 104.19c21.81,0 39.51,-17.69 39.51,-39.51 0,-21.82 -17.69,-39.51 -39.51,-39.51 -21.81,0 -39.51,17.69 -39.51,39.51 0,21.81 17.69,39.51 39.51,39.51z"/>
  <path fill="#9A9CAA" d="M633.51 316.75c0,-174.94 -141.82,-316.75 -316.75,-316.75 -174.94,0 -316.75,141.82 -316.75,316.75 0,174.93 141.82,316.75 316.75,316.75 174.93,0 316.75,-141.82 316.75,-316.75zm-604.71 0c0,-159.04 128.92,-287.96 287.96,-287.96 159.04,0 287.96,128.92 287.96,287.96 0,159.04 -128.92,287.96 -287.96,287.96 -159.04,0 -287.96,-128.92 -287.96,-287.96z"/>
 </g>
</svg>
