<?xml version="1.0" encoding="UTF-8"?>
<!DOCTYPE svg PUBLIC "-//W3C//DTD SVG 1.1//EN" "http://www.w3.org/Graphics/SVG/1.1/DTD/svg11.dtd">
<!-- Creator: CorelDRAW 2018 (64-Bit) -->
<svg xmlns="http://www.w3.org/2000/svg" xml:space="preserve" width="161.925mm" height="161.925mm" version="1.1" shape-rendering="geometricPrecision" text-rendering="geometricPrecision" image-rendering="optimizeQuality" fill-rule="evenodd" clip-rule="evenodd"
viewBox="0 0 705.82 705.82"
 xmlns:xlink="http://www.w3.org/1999/xlink">
 <g id="Слой_x0020_1">
  <metadata id="CorelCorpID_0Corel-Layer"/>
  <path fill="#9A9CAA" d="M490.43 243.41c6.23,0 11.27,5.05 11.27,11.27l0 196.45c0,6.23 -5.05,11.27 -11.27,11.27l-275.03 0c-6.23,0 -11.27,-5.04 -11.27,-11.27l0 -196.45c0,-6.23 5.04,-11.27 11.27,-11.27l275.03 0zm-31.19 22.55l-212.65 0 106.33 106.33 106.33 -106.33zm-232.57 11.97l0 139.42 69.71 -69.7 -69.71 -69.71zm85.65 85.65l-76.29 76.29 233.75 0 -76.29 -76.29 -32.62 32.62c-4.4,4.4 -11.54,4.4 -15.94,0l-32.62 -32.62zm97.12 -15.94l69.71 69.7 0 -139.42 -69.71 69.71z"/>
  <path fill="#9A9CAA" d="M705.82 352.91c0,-194.9 -158.01,-352.91 -352.91,-352.91 -194.9,0 -352.91,158.01 -352.91,352.91 0,194.9 158.01,352.91 352.91,352.91 194.9,0 352.91,-158.01 352.91,-352.91zm-673.74 0c0,-177.19 143.63,-320.83 320.83,-320.83 177.19,0 320.83,143.63 320.83,320.83 0,177.19 -143.63,320.83 -320.83,320.83 -177.19,0 -320.83,-143.63 -320.83,-320.83z"/>
 </g>
</svg>
