<?xml version="1.0" encoding="UTF-8"?>
<!DOCTYPE svg PUBLIC "-//W3C//DTD SVG 1.1//EN" "http://www.w3.org/Graphics/SVG/1.1/DTD/svg11.dtd">
<!-- Creator: CorelDRAW 2018 (64-Bit) -->
<svg xmlns="http://www.w3.org/2000/svg" xml:space="preserve" width="103.736mm" height="100mm" version="1.1" shape-rendering="geometricPrecision" text-rendering="geometricPrecision" image-rendering="optimizeQuality" fill-rule="evenodd" clip-rule="evenodd"
viewBox="0 0 455.97 439.55"
 xmlns:xlink="http://www.w3.org/1999/xlink">
 <g id="Слой_x0020_1">
  <metadata id="CorelCorpID_0Corel-Layer"/>
  <path fill="#9A9CAA" d="M440.39 0l-424.8 0c-8.59,0 -15.59,6.99 -15.59,15.58l0 408.38c0,8.59 6.99,15.58 15.59,15.58l424.8 0c8.59,0 15.58,-6.99 15.58,-15.58l0 -408.38c0,-8.59 -6.99,-15.58 -15.58,-15.58l0 -0zm-271.64 320.43c0,3.69 -2.99,6.68 -6.68,6.68 -3.69,0 -6.68,-2.99 -6.68,-6.68 0,-3.69 2.99,-6.68 6.68,-6.68 3.69,0 6.68,2.99 6.68,6.68zm0 -25.79c0,3.69 -2.99,6.68 -6.68,6.68 -3.69,0 -6.68,-2.99 -6.68,-6.68 0,-3.69 2.99,-6.68 6.68,-6.68 3.69,0 6.68,2.99 6.68,6.68zm253.39 -271.92l-328.63 0c-3.69,0 -6.68,2.99 -6.68,6.68 0,3.69 2.99,6.68 6.68,6.68l326.4 0 0 294.7 -5.36 0 0 -26.45c0,-24.19 -19.67,-43.87 -43.84,-43.87l-22.24 0 0 -1.05c21.12,-5.39 37.74,-22.07 43.01,-43.18l3.83 0c9.8,0 17.77,-7.92 17.77,-17.65l0 -13.28c0,-6.22 -3.27,-11.69 -8.18,-14.83l0 -19.83c0,-25.76 -13.17,-46.53 -34.7,-58.16 -2.65,-21.64 -21.12,-38.46 -43.45,-38.46 -22.33,0 -40.8,16.82 -43.45,38.45 -19.68,10.64 -32.36,28.92 -34.39,51.66 -1.32,-1.2 -2.8,-2.22 -4.41,-3.02l0 -49.06c0,-18.42 -15.03,-33.4 -33.51,-33.4l-3.44 0c-3.45,0 -6.79,0.54 -9.92,1.51 -7.6,-11.33 -20.56,-18.82 -35.24,-18.82l-40.39 0c-23.36,0 -42.37,18.94 -42.37,42.22l0 57.54c-6.19,3.04 -10.47,9.39 -10.47,16.73l0 14.49c0,10.28 8.38,18.65 18.68,18.65l4.95 0c4,16.05 14.16,29.71 27.81,38.33l0 1.71 -2.08 0c-4.86,0 -9.46,3.36 -10.95,7.98l-0.61 1.91 -27 0c-21.25,0 -38.53,17.23 -38.53,38.4l0 51.48 -5.36 0 0 -294.7 25.39 0c3.69,0 6.68,-2.99 6.68,-6.68 0,-3.69 -2.99,-6.68 -6.68,-6.68l-27.61 -0c-6.14,0 -11.13,5 -11.13,11.13l0 299.16c0,6.14 5,11.13 11.13,11.13l306.36 0c3.69,0 6.68,-2.99 6.68,-6.68 0,-3.69 -2.99,-6.68 -6.68,-6.68l-66.92 0c3.46,-12.04 14.49,-20.72 27.59,-20.72 8.04,0 15.5,3.25 21,9.14 1.26,1.35 3.03,2.12 4.88,2.12 1.85,0 3.62,-0.77 4.88,-2.12 5.5,-5.89 12.96,-9.14 21,-9.14 13.11,0 24.14,8.68 27.59,20.72l-8.86 0c-3.69,0 -6.68,2.99 -6.68,6.68 0,3.69 2.99,6.68 6.68,6.68l50.77 0c6.14,0 11.13,-5 11.13,-11.13l0 -299.16c0,-6.14 -5,-11.13 -11.13,-11.13zm-334.3 154.89c-2.94,0 -5.33,-2.37 -5.33,-5.28l0 -14.49c0,-2.92 2.39,-5.29 5.33,-5.29l3.06 0 0 23.11c0,0.66 0.03,1.3 0.05,1.96l-3.12 0zm292.05 24.3c0,25.36 -20.71,46 -46.16,46l-13.93 0c-25.45,0 -46.16,-20.63 -46.16,-46l0 -36.44 43.83 0c9.29,0 18.21,-4.2 24.23,-11.2 6.03,7 14.94,11.2 24.23,11.2l13.95 0 0 36.44zm-41.69 76.16c-1.56,-1.76 -4.01,-2.65 -6.47,-2.1 -2.47,0.54 -4.31,2.4 -4.97,4.66 -0.66,-2.26 -2.5,-4.12 -4.97,-4.66 -2.47,-0.55 -4.9,0.34 -6.46,2.1 0.32,-2.05 -0.33,-4.21 -1.86,-5.75 2.96,-1.8 4.94,-5.05 4.94,-8.76l0 -2.33c0.46,0.01 0.92,0.03 1.39,0.03l13.93 0c0.47,0 0.92,-0.02 1.39,-0.03l0 2.33c0,3.71 1.99,6.95 4.94,8.75 -1.53,1.54 -2.19,3.7 -1.86,5.75l-0 0zm55.05 -76.16l0 -20.91 2.07 0c2.43,0 4.41,1.93 4.41,4.3l0 13.28c0,2.37 -1.98,4.3 -4.41,4.3l-2.09 0c0,-0.32 0.02,-0.64 0.02,-0.96l0 0zm-66.49 -134.54c12.65,0 23.51,7.77 28.09,18.79 -8.57,-2.54 -18,-3.9 -28.09,-3.9 -10.11,0 -19.53,1.37 -28.1,3.92 4.58,-11.03 15.45,-18.81 28.1,-18.81zm-64.79 83.26c0,-27.38 20.03,-55.01 64.79,-55.01 44.76,0 64.8,27.63 64.8,55.01l0 5.92c-1.8,-2.68 -4.85,-4.45 -8.31,-4.45l-17.31 0c-6.33,0 -12.37,-3.37 -15.76,-8.78 -1.84,-2.95 -5.01,-4.7 -8.48,-4.7 -3.47,0 -6.64,1.76 -8.48,4.7 -3.39,5.42 -9.42,8.79 -15.75,8.79l-47.19 0c-3.46,0 -6.51,1.77 -8.31,4.45l0 -5.92zm-8.17 34.66c0,-2.37 1.98,-4.3 4.41,-4.3l2.07 0 0 20.91c0,0.32 0.02,0.64 0.02,0.96l-2.1 0c-2.43,0 -4.41,-1.93 -4.41,-4.29l0 -13.29zm-20.57 -9.64l0 -23.1 3.07 0c2.94,0 5.33,2.37 5.33,5.29l0 14.49c0,2.92 -2.39,5.29 -5.33,5.29l-3.12 0c0.02,-0.65 0.05,-1.3 0.05,-1.96l-0 0zm3.07 15.31c1.43,0 2.81,-0.17 4.14,-0.48l0 8.08c0,9.74 7.97,17.65 17.77,17.65l3.83 0c5.27,21.11 21.9,37.79 43.01,43.18l0 1.05 -22.24 0c-1.66,0 -3.3,0.1 -4.92,0.28 -6.57,-11.82 -19.21,-19.84 -33.71,-19.84l-26.67 0 -0.59 -1.87c-1.47,-4.64 -6.07,-8.02 -10.94,-8.02l-2.45 0 0 -1.72c13.65,-8.62 23.81,-22.27 27.81,-38.33l4.95 0zm-28.73 -118.96l3.43 0c11.11,0 20.15,8.99 20.15,20.04l0 29.88c-3.81,-13.74 -12.82,-24.17 -26.38,-30.8l0 -7.55c0,-3.84 -0.53,-7.56 -1.5,-11.1 1.38,-0.3 2.82,-0.46 4.3,-0.46l0 -0zm-114.56 11.56c0,-15.92 13.01,-28.86 29.01,-28.86l40.39 0c16,0 29.01,12.95 29.01,28.86l0 2.65c-8.59,-2.28 -18.39,-3.47 -29.33,-3.47 -37.79,0 -62.1,14.07 -69.08,39.17l-0 -38.35zm11.27 92.08l0 -37.66c0,-19.11 10.03,-41.88 57.8,-41.88 47.77,0 57.8,22.78 57.8,41.88l0 37.66c0,27.64 -22.56,50.12 -50.29,50.12l-15.02 0c-27.73,0 -50.29,-22.48 -50.29,-50.12zm73.89 86.58l15.9 -6.58 0 20.82 -15.9 -6.58 0 -7.66zm-1.19 -13.96l7.94 -11.02c1.79,-0.44 3.54,-0.97 5.27,-1.56l0 7.12c-0.07,0.03 -0.15,0.05 -0.22,0.08l-12.99 5.37zm-14.9 -2.17l-5.03 -6.97 10.05 0 -5.02 6.97zm2.73 16.91l0 6.11 -5.72 0 0 -6.11 5.72 0zm-30.62 -20.11c-0.08,-0.03 -0.15,-0.05 -0.22,-0.08l0 -7.12c1.73,0.59 3.48,1.12 5.27,1.56l7.94 11.02 -12.99 -5.37zm11.54 19.23l0 7.87 -15.65 6.47 0 -20.82 15.65 6.47zm-42.58 68.65l-2.79 -4.69 16.16 -9.18c2.96,-1.69 4.69,-4.55 4.61,-7.66 -0.08,-3.11 -1.94,-5.89 -4.99,-7.42l-12.68 -6.39 0.76 -2.36c1.13,-3.51 -0.8,-7.27 -4.31,-8.4 -3.51,-1.12 -7.27,0.8 -8.4,4.31l-1.44 4.46c-1.61,5.01 0.72,10.57 5.42,12.93l6.65 3.35 -11.24 6.39c-2.39,1.36 -4.08,3.56 -4.79,6.21 -0.7,2.65 -0.31,5.41 1.09,7.76l0.41 0.69 -32.81 -0 0 -51.48c0,-13.8 11.29,-25.03 25.17,-25.03l22.7 0 -1.43 4.44c-1.13,3.51 0.8,7.27 4.31,8.4 3.51,1.13 7.27,-0.8 8.4,-4.31l2.79 -8.67c-0,0.15 -0.02,0.3 -0.02,0.45l0 22.99c0,7.42 5.04,12.81 11.99,12.81 1.07,0 2.15,-0.15 3.23,-0.41l8.25 40.82 -37.05 0zm67.18 0l-16.51 0 -9.27 -45.83 8.03 -3.32c1.32,0.55 2.77,0.86 4.28,0.86l10.17 0c1.56,0 3.05,-0.33 4.4,-0.91l8.16 3.37 -9.26 45.83zm50.67 0l-37.04 0 8.25 -40.82c1.07,0.26 2.15,0.41 3.22,0.41 3.45,0 6.58,-1.38 8.81,-3.89 2.08,-2.34 3.18,-5.42 3.18,-8.92l0 -22.99c0,-0.51 -0.02,-1.02 -0.07,-1.51l13.37 42.36 -12.71 6.41c-3.05,1.53 -4.91,4.31 -4.99,7.42 -0.08,3.11 1.64,5.98 4.61,7.66l16.16 9.18 -2.79 4.69zm17.98 -26.45l0 26.45 -2.42 0 0.41 -0.69c1.4,-2.36 1.79,-5.12 1.09,-7.77 -0.7,-2.65 -2.4,-4.86 -4.79,-6.21l-11.24 -6.39 6.65 -3.35c4.68,-2.36 7.02,-7.91 5.44,-12.9l-12.38 -39.21 22.45 0c8.32,0 15.69,4.04 20.27,10.25 -15.03,6.96 -25.48,22.19 -25.48,39.82l0 0zm162.22 26.45l-7.22 0c-3.74,-19.55 -20.8,-34.08 -41.32,-34.08 -9.4,0 -18.54,3.19 -25.89,8.92 -7.35,-5.73 -16.49,-8.92 -25.88,-8.92 -20.53,0 -37.59,14.52 -41.32,34.08l-7.23 0 0 -26.45c0,-16.82 13.68,-30.51 30.48,-30.51l20.06 0c-1.56,2.83 -0.87,6.44 1.77,8.48 2.8,2.17 6.79,1.76 9.1,-0.86 -0.55,3.45 1.68,6.79 5.15,7.57 3.46,0.77 6.9,-1.3 7.87,-4.66 0.83,2.89 3.48,4.82 6.41,4.82 0.48,0 0.96,-0.05 1.45,-0.16 3.47,-0.78 5.7,-4.12 5.15,-7.57 2.31,2.63 6.3,3.04 9.11,0.87 2.63,-2.04 3.31,-5.66 1.76,-8.49l20.07 0c16.81,0 30.48,13.69 30.48,30.51l0 26.45zm11.88 24.48c-5.32,0 -10.34,2.02 -14.14,5.71 -3.8,-3.68 -8.82,-5.71 -14.14,-5.71 -5.37,0 -10.43,2.06 -14.23,5.8 -3.85,3.77 -5.97,8.8 -5.97,14.16 0,5.35 2.12,10.38 5.96,14.15l21.8 21.42c1.76,1.74 4.1,2.69 6.57,2.69 2.48,0 4.81,-0.95 6.56,-2.68l21.82 -21.43c3.84,-3.77 5.96,-8.8 5.96,-14.15 0,-5.35 -2.12,-10.38 -5.96,-14.15 -3.81,-3.74 -8.87,-5.81 -14.24,-5.81l-0 0zm4.88 24.58l-19.02 18.68 -19.02 -18.68c-1.28,-1.26 -1.96,-2.86 -1.96,-4.62 0,-1.76 0.68,-3.36 1.97,-4.62 1.29,-1.28 3.03,-1.98 4.88,-1.98 1.85,0 3.58,0.7 4.88,1.98l4.58 4.49c2.6,2.55 6.76,2.55 9.36,0l4.58 -4.49c1.3,-1.28 3.03,-1.98 4.88,-1.98 1.85,0 3.58,0.7 4.88,1.98 1.28,1.26 1.96,2.85 1.96,4.62 0,1.77 -0.68,3.37 -1.96,4.62l0 -0zm-270.42 -0.2l-15.28 0c-3.69,0 -6.68,2.99 -6.68,6.68 0,3.69 2.99,6.68 6.68,6.68l15.28 0c3.69,0 6.68,-2.99 6.68,-6.68 0,-3.69 -2.99,-6.68 -6.68,-6.68l0 -0zm-36.21 0l-73.03 0c-3.69,0 -6.68,2.99 -6.68,6.68 0,3.69 2.99,6.68 6.68,6.68l73.03 0c3.69,0 6.68,-2.99 6.68,-6.68 0,-3.69 -2.99,-6.68 -6.68,-6.68l0 -0zm232.08 -172.66l-33.29 0c-5.84,0 -10.58,4.74 -10.58,10.56 0,14.95 12.21,27.12 27.23,27.12 15.01,0 27.23,-12.17 27.23,-27.12 0,-5.82 -4.74,-10.56 -10.58,-10.56zm-16.65 24.32c-6.68,0 -12.28,-4.71 -13.58,-10.96l27.16 0c-1.3,6.25 -6.9,10.96 -13.58,10.96l0 0zm-1.75 -28.35l6.57 0c3.69,0 6.68,-2.99 6.68,-6.68 0,-3.69 -2.99,-6.68 -6.68,-6.68l-2.95 0 0 -7.24c0,-3.69 -2.99,-6.68 -6.68,-6.68 -3.69,0 -6.68,2.99 -6.68,6.68l0 10.87c0,5.36 4.37,9.72 9.74,9.72l0 0zm32.19 -31.95c-3.69,0 -6.68,2.99 -6.68,6.68l0 11.52c0,3.69 2.99,6.68 6.68,6.68 3.69,0 6.68,-2.99 6.68,-6.68l0 -11.52c0,-3.69 -2.99,-6.68 -6.68,-6.68zm-54.21 18.2l0 -11.52c0,-3.69 -2.99,-6.68 -6.68,-6.68 -3.69,0 -6.68,2.99 -6.68,6.68l0 11.52c0,3.69 2.99,6.68 6.68,6.68 3.69,0 6.68,-2.99 6.68,-6.68zm-115.96 11.05c2.61,-2.61 2.61,-6.84 -0,-9.45 -2.61,-2.61 -6.84,-2.61 -9.45,0 -4.14,4.15 -9.66,6.43 -15.52,6.43 -5.87,0 -11.38,-2.29 -15.52,-6.43 -2.61,-2.61 -6.84,-2.61 -9.45,-0.01 -2.61,2.61 -2.61,6.84 -0,9.45 6.67,6.67 15.54,10.35 24.97,10.35 9.43,0 18.3,-3.68 24.97,-10.35zm-2.12 -58.74c5.12,-5.1 13.46,-5.1 18.58,0 1.3,1.3 3.01,1.94 4.71,1.94 1.72,0 3.43,-0.65 4.73,-1.97 2.6,-2.62 2.6,-6.84 -0.02,-9.45 -10.32,-10.28 -27.11,-10.28 -37.44,0 -2.61,2.6 -2.62,6.83 -0.02,9.45 2.61,2.61 6.84,2.62 9.45,0.02zm9.29 1.83c-3.69,0 -6.68,2.99 -6.68,6.68l0 12.17c0,3.69 2.99,6.68 6.68,6.68 3.69,0 6.68,-2.99 6.68,-6.68l0 -12.17c0,-3.69 -2.99,-6.68 -6.68,-6.68zm-55.01 -1.83c1.3,1.3 3.01,1.94 4.71,1.94 1.72,0 3.43,-0.65 4.73,-1.97 2.61,-2.61 2.6,-6.84 -0.02,-9.45 -10.32,-10.28 -27.11,-10.28 -37.44,0 -2.61,2.6 -2.62,6.83 -0.02,9.45 2.6,2.61 6.83,2.62 9.45,0.02 5.12,-5.1 13.46,-5.1 18.58,0l0 0zm-2.61 8.51c0,-3.69 -2.99,-6.68 -6.68,-6.68 -3.69,0 -6.68,2.99 -6.68,6.68l0 12.17c0,3.69 2.99,6.68 6.68,6.68 3.69,0 6.68,-2.99 6.68,-6.68l0 -12.17zm13.68 19.92c0,5.54 4.51,10.04 10.06,10.04l7.25 0c3.69,0 6.68,-2.99 6.68,-6.68 0,-3.69 -2.99,-6.68 -6.68,-6.68l-3.95 0 0 -13.82c0,-3.69 -2.99,-6.68 -6.68,-6.68 -3.69,0 -6.68,2.99 -6.68,6.68l0 17.14zm292.35 254.03c0,1.21 -1.02,2.23 -2.23,2.23l-424.8 0c-1.21,0 -2.23,-1.02 -2.23,-2.23l0 -408.38c0,-1.21 1.02,-2.23 2.23,-2.23l424.8 -0c1.21,0 2.23,1.02 2.23,2.23l0 408.38z"/>
 </g>
</svg>
