<?xml version="1.0" encoding="UTF-8"?>
<!DOCTYPE svg PUBLIC "-//W3C//DTD SVG 1.1//EN" "http://www.w3.org/Graphics/SVG/1.1/DTD/svg11.dtd">
<!-- Creator: CorelDRAW 2018 (64-Bit) -->
<svg xmlns="http://www.w3.org/2000/svg" xml:space="preserve" width="108.787mm" height="99.696mm" version="1.1" shape-rendering="geometricPrecision" text-rendering="geometricPrecision" image-rendering="optimizeQuality" fill-rule="evenodd" clip-rule="evenodd"
viewBox="0 0 902.62 827.19"
 xmlns:xlink="http://www.w3.org/1999/xlink">
 <g id="Слой_x0020_1">
  <metadata id="CorelCorpID_0Corel-Layer"/>
  <path fill="#9A9CAA" d="M872.44 23.63c0,-13.01 -10.62,-23.63 -23.63,-23.63 -275.06,0 -550.12,0 -825.18,0 -13.01,0 -23.63,10.62 -23.63,23.63l0 282.1c0,13.01 10.62,23.63 23.63,23.63l21.63 0 0 409.83 -21.63 0c-13.01,0 -23.63,10.62 -23.63,23.63l0 40.73c0,13.01 10.62,23.63 23.63,23.63l131.24 0c13.01,0 23.63,-10.62 23.63,-23.63l0 -40.73c0,-13.01 -10.62,-23.63 -23.63,-23.63l-21.63 0 0 -138.29 62.87 0 0 106.86c0,7.63 6.19,13.82 13.82,13.82l362.06 -0c3.67,0 7.18,-1.46 9.77,-4.05l116.63 -116.63 70.97 0 0 138.29 -21.63 0c-13.01,0 -23.63,10.62 -23.63,23.63l0 40.73c0,13.01 10.62,23.63 23.63,23.63l131.24 0c13.01,0 23.63,-10.62 23.63,-23.63l0 -40.73c0,-13.01 -10.62,-23.63 -23.63,-23.63l-21.63 0 0 -409.83 21.63 0c13.01,0 23.63,-10.62 23.63,-23.63l0 -131.24c0,-13.01 -10.62,-23.63 -23.63,-23.63l-6.54 0 0 -127.23zm-299.19 4.02l0 123.21 -304.24 0 0 -123.21 304.24 0zm248.99 57.18l-19.55 -19.55 -85.57 85.57 -51.42 0 66.02 -66.02 -19.55 -19.55 -85.57 85.57 -25.71 0 0 -123.21 243.89 0 0 123.21 -88.57 0 66.02 -66.02zm-613.57 -57.18l32.69 0 0 123.21 -32.69 0 0 -123.21zm-60.34 0l32.69 0 0 123.21 -32.69 0 0 -123.21zm-60.34 0l32.69 0 0 123.21 -32.69 0 0 -123.21zm-60.34 0l32.69 0 0 123.21 -32.69 0 0 -123.21zm123.21 739.2l0 32.69 -123.21 0 0 -32.69 123.21 0zm-77.95 -27.65l0 -409.83 32.69 0 0 409.83 -32.69 0zm123.21 -165.94l-62.87 0 0 -32.69 62.87 0 0 32.69zm0 -60.34l-62.87 0 0 -183.55 62.87 0 0 183.55zm0 -211.2l-47.78 0 0 -32.69 47.78 0 0 32.69zm389.7 372.68l0 -73.49 73.49 0 -73.49 73.49zm93.04 -101.14l-106.86 0c-7.63,0 -13.82,6.19 -13.82,13.82l0 106.86 -334.41 0 0 -424.92 455.09 0 0 304.23zm27.65 0l0 -32.69 62.87 0 0 32.69 -62.87 0zm62.87 -243.89l0 183.55 -62.87 0 0 -183.55 62.87 0zm-62.87 -27.65l0 -32.69 47.78 0 0 32.69 -47.78 0zm168.46 465.13l0 32.69 -123.21 0 0 -32.69 123.21 0zm-77.95 -27.65l0 -409.83 32.69 0 0 409.83 -32.69 0zm77.95 -437.48l-93.04 0 0 -36.71c0,-13.01 -10.62,-23.63 -23.63,-23.63l-613.98 0c-13.01,0 -23.63,10.62 -23.63,23.63l0 36.71 -93.04 -0 0 -123.21 847.32 0 0 123.21zm-807.59 -90.51c-3.87,0 -7.04,3.16 -7.04,7.04l0 13.58c0,3.87 3.16,7.04 7.04,7.04l13.58 0c3.87,0 7.04,-3.16 7.04,-7.04l0 -13.58c0,-3.87 -3.16,-7.04 -7.04,-7.04l-13.58 0zm754.28 0c-3.87,0 -7.04,3.16 -7.04,7.04l0 13.58c0,3.87 3.16,7.04 7.04,7.04l13.58 0c3.87,0 7.04,-3.16 7.04,-7.04l0 -13.58c0,-3.87 -3.16,-7.04 -7.04,-7.04l-13.58 0z"/>
 </g>
</svg>
