<?xml version="1.0" encoding="UTF-8"?>
<!DOCTYPE svg PUBLIC "-//W3C//DTD SVG 1.1//EN" "http://www.w3.org/Graphics/SVG/1.1/DTD/svg11.dtd">
<!-- Creator: CorelDRAW 2018 (64-Bit) -->
<svg xmlns="http://www.w3.org/2000/svg" xml:space="preserve" width="161.925mm" height="161.925mm" version="1.1" shape-rendering="geometricPrecision" text-rendering="geometricPrecision" image-rendering="optimizeQuality" fill-rule="evenodd" clip-rule="evenodd"
viewBox="0 0 540.39 540.39"
 xmlns:xlink="http://www.w3.org/1999/xlink">
 <g id="Слой_x0020_1">
  <metadata id="CorelCorpID_0Corel-Layer"/>
  <path fill="#9A9CAA" d="M300.9 362.3c-0.02,-0.02 -0.04,-0.03 -0.06,-0.05l-34.52 -27.8 -23.52 21.66c-4.11,3.79 -9.23,6.3 -14.9,6.3 -9.09,0 -15.89,-6.45 -18.78,-14.73l-21.22 -60.67 -38.92 -11.14c-0.08,-0.02 -0.16,-0.05 -0.23,-0.07 -6.41,-2.04 -13.14,-6.29 -13.35,-13.74 -0.21,-7.45 6.27,-12.07 12.55,-14.47l191.71 -73.18c2.79,-1.06 5.75,-1.73 8.75,-1.73 5.04,0 9.77,1.93 12.98,5.87 3.92,4.8 4.52,11.21 3.33,17.1l-31.41 155.1c-1.87,9.23 -8.47,16.94 -18.42,16.94 -4.99,-0 -9.67,-2.04 -13.56,-5.06 -0.03,-0.02 -0.06,-0.05 -0.12,-0.09l-0.3 -0.25zm-96.29 -77.99l15.75 45.05 7.84 -31.77c0.34,-1.39 1.04,-2.67 2.02,-3.71l41.06 -43.63 -66.68 34.06zm48.58 39.58l-11.93 -9.61 -6.58 26.66 18.52 -17.05zm95.35 -134.53c-0.05,-0 -0.1,-0 -0.13,-0 -0.91,0 -1.97,0.32 -2.81,0.64l-186.89 71.34 34.76 9.95 113.03 -57.74c3.6,-1.84 8.03,-0.82 10.46,2.42 2.42,3.23 2.17,7.78 -0.6,10.71l-67.83 72.07 22.58 18.18c0.03,0.02 0.06,0.05 0.1,0.08l40.37 32.5c0.82,0.63 2.23,1.53 3.31,1.53 1.19,0 1.91,-2.73 2.09,-3.58l31.41 -155.11c0.12,-0.61 0.34,-2.15 0.16,-2.99z"/>
  <path fill="#9A9CAA" d="M540.39 270.2c0,-149.22 -120.97,-270.2 -270.2,-270.2 -149.22,0 -270.2,120.97 -270.2,270.2 0,149.22 120.97,270.2 270.2,270.2 149.22,0 270.2,-120.97 270.2,-270.2zm-515.83 0c0,-135.66 109.97,-245.63 245.63,-245.63 135.66,0 245.63,109.97 245.63,245.63 0,135.66 -109.97,245.63 -245.63,245.63 -135.66,0 -245.63,-109.97 -245.63,-245.63z"/>
 </g>
</svg>
