<?xml version="1.0" encoding="UTF-8"?>
<!DOCTYPE svg PUBLIC "-//W3C//DTD SVG 1.1//EN" "http://www.w3.org/Graphics/SVG/1.1/DTD/svg11.dtd">
<!-- Creator: CorelDRAW 2018 (64-Bit) -->
<svg xmlns="http://www.w3.org/2000/svg" xml:space="preserve" width="161.925mm" height="161.925mm" version="1.1" shape-rendering="geometricPrecision" text-rendering="geometricPrecision" image-rendering="optimizeQuality" fill-rule="evenodd" clip-rule="evenodd"
viewBox="0 0 581.51 581.51"
 xmlns:xlink="http://www.w3.org/1999/xlink">
 <g id="Слой_x0020_1">
  <metadata id="CorelCorpID_0Corel-Layer"/>
  <path fill="#9A9CAA" d="M581.51 290.76c0,-160.58 -130.18,-290.76 -290.76,-290.76 -160.58,0 -290.76,130.18 -290.76,290.76 0,160.58 130.18,290.76 290.76,290.76 160.58,0 290.76,-130.18 290.76,-290.76zm-555.08 0c0,-145.99 118.34,-264.32 264.32,-264.32 145.99,0 264.32,118.34 264.32,264.32 0,145.99 -118.34,264.32 -264.32,264.32 -145.99,0 -264.32,-118.34 -264.32,-264.32z"/>
  <g id="_1951480113728">
   <path fill="#9A9CAA" d="M397.69 234.42l-0.07 -0.27c-5.4,-21.84 -29.75,-45.27 -52.12,-50.14l-0.25 -0.05c-36.17,-6.9 -72.85,-6.9 -109.01,0l-0.26 0.05c-22.36,4.87 -46.71,28.31 -52.12,50.14l-0.06 0.27c-6.68,30.49 -6.68,61.42 0,91.91l0.06 0.27c5.18,20.9 27.72,43.26 49.24,49.41l0 24.38c0,8.82 10.75,13.16 16.86,6.79l24.7 -25.67c5.36,0.3 10.72,0.47 16.07,0.47 18.21,0 36.42,-1.72 54.5,-5.17l0.25 -0.05c22.36,-4.87 46.71,-28.31 52.12,-50.14l0.07 -0.27c6.68,-30.5 6.68,-61.42 -0,-91.92zm-19.54 87.49c-3.61,14.25 -22.1,31.96 -36.79,35.23 -19.23,3.66 -38.62,5.22 -57.98,4.68 -0.38,-0.01 -0.76,0.14 -1.02,0.42 -2.75,2.82 -18.03,18.51 -18.03,18.51l-19.18 19.68c-1.4,1.46 -3.87,0.47 -3.87,-1.55l0 -40.38c0,-0.67 -0.48,-1.23 -1.13,-1.36 -0,-0 -0.01,-0 -0.01,-0 -14.69,-3.27 -33.17,-20.98 -36.79,-35.23 -6.01,-27.56 -6.01,-55.51 0,-83.07 3.61,-14.25 22.1,-31.96 36.79,-35.23 33.59,-6.39 67.64,-6.39 101.23,0 14.7,3.27 33.18,20.98 36.79,35.23 6.02,27.56 6.02,55.51 0,83.07z"/>
   <path fill="#9A9CAA" d="M322.71 340.55c-2.26,-0.69 -4.41,-1.15 -6.41,-1.98 -20.71,-8.59 -39.78,-19.68 -54.88,-36.67 -8.59,-9.66 -15.31,-20.57 -20.99,-32.12 -2.69,-5.48 -4.96,-11.17 -7.28,-16.82 -2.11,-5.16 1,-10.48 4.27,-14.37 3.07,-3.65 7.02,-6.43 11.3,-8.49 3.34,-1.6 6.64,-0.68 9.07,2.15 5.27,6.12 10.12,12.56 14.04,19.65 2.41,4.36 1.75,9.7 -2.62,12.67 -1.06,0.72 -2.03,1.57 -3.02,2.38 -0.87,0.71 -1.69,1.44 -2.28,2.4 -1.09,1.77 -1.14,3.86 -0.44,5.78 5.39,14.82 14.48,26.34 29.39,32.54 2.39,0.99 4.78,2.15 7.53,1.83 4.6,-0.54 6.09,-5.59 9.32,-8.23 3.15,-2.58 7.18,-2.61 10.58,-0.46 3.4,2.15 6.69,4.46 9.96,6.79 3.21,2.29 6.41,4.53 9.38,7.14 2.85,2.51 3.83,5.8 2.23,9.21 -2.94,6.24 -7.21,11.43 -13.38,14.74 -1.74,0.93 -3.82,1.24 -5.78,1.84 -2.26,-0.69 1.96,-0.6 0,0z"/>
   <path fill="#9A9CAA" d="M290.81 222.97c27.09,0.76 49.35,18.74 54.11,45.52 0.81,4.56 1.1,9.23 1.46,13.86 0.15,1.95 -0.95,3.8 -3.05,3.82 -2.17,0.03 -3.15,-1.79 -3.29,-3.74 -0.28,-3.85 -0.47,-7.73 -1,-11.55 -2.8,-20.18 -18.9,-36.88 -38.99,-40.46 -3.02,-0.54 -6.12,-0.68 -9.18,-1 -1.94,-0.2 -4.47,-0.32 -4.9,-2.73 -0.36,-2.02 1.34,-3.62 3.26,-3.73 0.52,-0.03 1.05,-0.01 1.57,-0 27.09,0.76 -0.52,-0 0,0z"/>
   <path fill="#9A9CAA" d="M331.99 276.35c-0.04,0.34 -0.07,1.13 -0.27,1.88 -0.72,2.72 -4.84,3.06 -5.79,0.32 -0.28,-0.81 -0.32,-1.74 -0.33,-2.62 -0.01,-5.74 -1.26,-11.47 -4.15,-16.46 -2.97,-5.13 -7.52,-9.44 -12.85,-12.06 -3.22,-1.58 -6.71,-2.56 -10.24,-3.14 -1.54,-0.26 -3.1,-0.41 -4.66,-0.63 -1.88,-0.26 -2.88,-1.46 -2.8,-3.31 0.08,-1.74 1.35,-2.99 3.24,-2.88 6.22,0.35 12.22,1.7 17.75,4.62 11.24,5.95 17.66,15.35 19.54,27.9 0.08,0.57 0.22,1.13 0.26,1.7 0.11,1.41 0.17,2.82 0.28,4.68 -0.04,0.34 -0.11,-1.86 0,0z"/>
   <path fill="#9A9CAA" d="M315.13 275.69c-2.27,0.04 -3.48,-1.21 -3.71,-3.29 -0.16,-1.45 -0.29,-2.92 -0.64,-4.33 -0.68,-2.78 -2.16,-5.35 -4.49,-7.05 -1.1,-0.8 -2.35,-1.39 -3.66,-1.77 -1.66,-0.48 -3.39,-0.35 -5.05,-0.75 -1.8,-0.44 -2.8,-1.9 -2.51,-3.59 0.26,-1.54 1.75,-2.74 3.43,-2.62 10.5,0.76 18.01,6.19 19.08,18.55 0.08,0.87 0.16,1.79 -0.03,2.63 -0.33,1.43 -1.39,2.15 -2.42,2.22 -2.27,0.04 1.03,-0.07 0,0z"/>
  </g>
 </g>
</svg>
