<?xml version="1.0" encoding="UTF-8"?>
<!DOCTYPE svg PUBLIC "-//W3C//DTD SVG 1.1//EN" "http://www.w3.org/Graphics/SVG/1.1/DTD/svg11.dtd">
<!-- Creator: CorelDRAW 2018 (64-Bit) -->
<svg xmlns="http://www.w3.org/2000/svg" xml:space="preserve" width="98.2758mm" height="100mm" version="1.1" shape-rendering="geometricPrecision" text-rendering="geometricPrecision" image-rendering="optimizeQuality" fill-rule="evenodd" clip-rule="evenodd"
viewBox="0 0 588.14 598.46"
 xmlns:xlink="http://www.w3.org/1999/xlink">
 <g id="Слой_x0020_1">
  <metadata id="CorelCorpID_0Corel-Layer"/>
  <path fill="#9A9CAA" d="M459.38 443.89c-4.1,5.04 -8.46,9.91 -12.99,14.49 -4,4.06 -3.96,10.59 0.1,14.59 2,1.98 4.62,2.98 7.24,2.98 2.66,0 5.32,-1.02 7.35,-3.06 4.97,-5.05 9.78,-10.41 14.3,-15.95 3.6,-4.43 2.93,-10.93 -1.5,-14.52 -4.43,-3.59 -10.92,-2.93 -14.51,1.48zm-131.99 -253.5c10.67,0 21.68,4.28 32.94,12.88 11.31,8.55 20.35,21.34 27.09,38.25 6.78,16.91 10.18,37.41 10.18,61.45 0,31.81 -7.03,57.27 -21.09,76.4 -14.11,19.12 -31.22,28.71 -51.37,28.71 -11.65,0 -23.25,-3.88 -34.76,-11.65 -11.55,-7.77 -20.75,-19.86 -27.58,-36.23 -6.88,-16.37 -10.32,-37.22 -10.32,-62.53 0,-29.64 6.83,-54.91 20.45,-75.86 13.67,-20.94 31.81,-31.41 54.47,-31.41zm-2.7 203.23c13.32,0 23.75,-8.55 31.12,-25.71 7.42,-17.11 11.11,-41.54 11.11,-73.2 0,-27.58 -3.69,-49.46 -11.11,-65.63 -7.37,-16.17 -17.16,-24.24 -29.25,-24.24 -12.68,0 -22.91,9.83 -30.77,29.5 -7.82,19.66 -11.75,43.26 -11.75,70.69 0,24.53 3.59,45.38 10.82,62.68 7.23,17.26 17.16,25.91 29.84,25.91zm0.34 184.2c-8.19,0 -16.29,-0.48 -24.28,-1.4 -21.12,-2.97 -39.57,-7.29 -59.31,-15.66 -55.49,-23.48 -101.51,-69.65 -129.5,-128.66 -0.22,-0.44 -0.4,-0.91 -0.62,-1.35 -5.1,-10.89 -9.58,-22.27 -13.31,-33.7 -0.61,-1.86 -1.19,-3.73 -1.76,-5.61 -5.17,-16.85 -8.85,-34.15 -11.11,-51.62 -3.72,-28.92 -3.41,-58.52 0.92,-87.36 4.23,-28.82 13.11,-59.88 25.9,-86.09 27.99,-59.02 74.01,-105.17 129.5,-128.66 26.41,-11.02 54.92,-17.07 83.58,-17.07 133.7,0 242.48,124.97 242.48,278.59 0,153.62 -108.77,278.59 -242.48,278.59zm-105.73 -4.56c-23.66,-4.98 -46.02,-14.13 -66.75,-26.39l24.96 -0c1.31,1.01 2.66,1.96 3.98,2.95 2.16,1.6 4.3,3.21 6.5,4.75 4.04,2.82 8.16,5.52 12.34,8.09 1.87,1.15 3.78,2.21 5.68,3.31 3.29,1.91 6.62,3.73 9.99,5.49 1.11,0.57 2.18,1.25 3.3,1.81zm-128.25 -77.99l35.41 0c1.17,1.53 2.32,3.05 3.52,4.56 3.12,3.91 6.31,7.73 9.61,11.44 1.86,2.1 3.78,4.13 5.7,6.17 1.98,2.11 3.99,4.19 6.03,6.23 0.84,0.84 1.62,1.72 2.47,2.55l-31.04 -0c-11.33,-9.28 -21.93,-19.64 -31.69,-30.95zm45.48 -433.37l28.51 0c-10.93,9.56 -20.95,19.83 -30.27,30.95l-34.07 0c11.08,-11.53 23.04,-21.92 35.84,-30.95zm-30.13 71.03c-0.87,1.48 -1.68,2.99 -2.53,4.49 -2.28,4.02 -4.48,8.11 -6.59,12.26 -0.77,1.52 -1.56,3.02 -2.31,4.56 -0.09,0.17 -0.19,0.35 -0.27,0.53l-38.68 0c7.81,-14.72 16.81,-28.5 26.79,-41.27l36.14 0c-1.26,1.81 -2.53,3.6 -3.75,5.44 -3.04,4.57 -5.98,9.23 -8.8,14zm-34.23 248.84c0.32,1.26 0.62,2.54 0.95,3.79 2.49,9.12 5.29,18.27 8.5,27.17l-39.76 0c-3.91,-10.02 -7.27,-20.36 -10.14,-30.95l40.45 0zm-2.47 -154.77c-0.27,1.22 -0.5,2.46 -0.75,3.68 -0.28,1.35 -0.57,2.7 -0.83,4.07 -1.26,6.48 -2.37,13 -3.26,19.63 -0.04,0.32 -0.06,0.64 -0.1,0.96 -0.11,0.87 -0.19,1.75 -0.3,2.62l-40.95 0c1.36,-10.5 3.09,-20.86 5.45,-30.95l40.75 0zm-6.4 103.18c0.39,4.34 0.9,8.65 1.45,12.94 0.04,0.32 0.06,0.64 0.1,0.96 0.76,5.75 1.69,11.42 2.73,17.06l-40.7 0c-2.01,-10.13 -3.6,-20.44 -4.62,-30.95l41.03 0zm-42.68 -30.95c0,-6.95 0.37,-13.81 0.8,-20.64l41.14 0c-0.01,0.17 -0.01,0.33 -0.02,0.5 -0.38,6.67 -0.65,13.36 -0.65,20.14 0,3.46 0.12,6.88 0.23,10.32l-41.1 0c-0.11,-3.45 -0.4,-6.84 -0.4,-10.32zm25.47 -123.82l39.49 0c-1.81,4.51 -3.52,9.07 -5.14,13.69 -0.44,1.28 -0.9,2.55 -1.33,3.83 -1.49,4.44 -2.87,8.92 -4.18,13.43l-40.3 0c3.28,-10.64 7.12,-20.96 11.46,-30.96zm65.95 299.23l-37.01 0c-9.1,-12.86 -17.18,-26.67 -24.2,-41.27l39.09 0c1.62,3.65 3.28,7.27 5.03,10.84 0.75,1.54 1.54,3.04 2.31,4.56 2.11,4.15 4.31,8.23 6.59,12.26 0.85,1.5 1.66,3.01 2.53,4.49 1.84,3.09 3.75,6.11 5.66,9.12zm79.86 -433.37l-19.86 0c15.09,-7.06 30.83,-12.62 47.24,-16.08 -9.16,4.53 -18.89,10.36 -27.37,16.08zm133.11 -41.27c-20.71,0 -41.2,0 -61.91,0 -50.38,0 -97.5,16.22 -137.54,44.27 -0.01,0.01 -0.03,0.02 -0.04,0.03 -20.31,14.23 -38.78,31.52 -54.96,51.28 -0.48,0.44 -0.85,0.96 -1.24,1.49 -15.31,18.97 -28.48,40.2 -39.12,63.17 -0.29,0.52 -0.53,1.03 -0.72,1.6 -7.33,16.06 -13.44,32.93 -18.15,50.51 -0.46,0.99 -0.67,2.07 -0.8,3.21 -6.82,26.57 -10.54,54.64 -10.54,83.68 0,45.43 8.99,88.5 24.99,127.11 0.14,0.43 0.29,0.84 0.49,1.24 9.58,22.84 21.64,44.09 35.76,63.31 0.38,0.53 0.69,1.08 1.17,1.53 14.33,19.23 30.77,36.36 48.89,50.97 0.53,0.59 1.17,1.02 1.82,1.48 42.58,33.74 94.28,53.59 150,53.59 20.71,0 41.2,0 61.91,0 145.09,0 263.12,-134.23 263.12,-299.23 0,-165 -118.03,-299.23 -263.12,-299.23zm74.83 492.74c-5.73,2.94 -11.65,5.57 -17.6,7.81 -5.33,2 -8.03,7.96 -6.02,13.29 1.55,4.14 5.48,6.69 9.66,6.69 1.21,0 2.44,-0.22 3.64,-0.67 6.69,-2.52 13.34,-5.47 19.76,-8.76 5.07,-2.6 7.07,-8.82 4.47,-13.89 -2.61,-5.07 -8.82,-7.09 -13.91,-4.47zm-1.09 -387.57c5.7,2.87 11.32,6.11 16.72,9.63 1.73,1.14 3.68,1.68 5.62,1.68 3.36,0 6.67,-1.65 8.66,-4.68 3.12,-4.77 1.76,-11.16 -3.01,-14.28 -6.04,-3.94 -12.32,-7.56 -18.7,-10.77 -5.1,-2.57 -11.3,-0.52 -13.86,4.57 -2.57,5.09 -0.53,11.29 4.57,13.86zm-73.73 -17.71c6.25,0 12.58,0.37 18.76,1.08 0.41,0.05 0.82,0.07 1.21,0.07 5.17,0 9.63,-3.87 10.24,-9.12 0.66,-5.65 -3.39,-10.78 -9.05,-11.44 -7.24,-0.85 -14.41,-1.23 -21.7,-1.23 -5.65,0.06 -9.99,4.65 -9.99,10.32 0.01,5.71 4.84,10.32 10.55,10.32zm176.8 152.88c1.17,4.68 5.38,7.81 10,7.81 0.84,0 1.67,-0.1 2.52,-0.31 5.53,-1.39 8.88,-7 7.5,-12.52 -1.72,-6.86 -3.76,-13.74 -6.06,-20.45 -1.85,-5.39 -7.71,-8.26 -13.11,-6.41 -5.39,1.85 -8.26,7.72 -6.42,13.11 2.12,6.15 3.98,12.46 5.57,18.76zm-322.27 188.57c-3.2,-4.73 -9.6,-5.96 -14.33,-2.78 -4.72,3.2 -5.95,9.61 -2.77,14.33 4.04,5.97 8.34,11.75 12.77,17.17 2.04,2.49 4.99,3.78 7.99,3.78 2.3,0 4.61,-0.76 6.53,-2.34 4.42,-3.62 5.05,-10.11 1.44,-14.53 -4.02,-4.92 -7.95,-10.18 -11.64,-15.63zm-24.27 -238.37c-5.25,-2.33 -11.31,0.08 -13.59,5.3 -2.83,6.46 -5.43,13.16 -7.72,19.9 -1.83,5.4 1.07,11.26 6.46,13.09 1.09,0.37 2.22,0.55 3.31,0.55 4.3,0 8.32,-2.71 9.77,-7.01 2.09,-6.19 4.48,-12.33 7.08,-18.24 2.28,-5.22 -0.09,-11.31 -5.31,-13.6zm-7.17 167.19c-1.38,-5.53 -6.99,-8.9 -12.51,-7.52 -5.53,1.37 -8.89,6.98 -7.52,12.51 1.71,6.87 3.75,13.75 6.04,20.46 1.47,4.29 5.47,6.99 9.76,6.99 1.1,0 2.23,-0.19 3.33,-0.56 5.39,-1.85 8.28,-7.71 6.43,-13.1 -2.09,-6.14 -3.95,-12.45 -5.53,-18.77zm-7.1 -58.48c0,-6.43 0.26,-12.96 0.76,-19.4 0.44,-5.69 -3.8,-10.65 -9.48,-11.1 -5.62,-0.37 -10.65,3.8 -11.09,9.47 -0.55,6.98 -0.83,14.05 -0.83,21.02l0 0.22c0,5.7 4.61,10.2 10.32,10.2 5.71,0 10.32,-4.72 10.32,-10.41zm109.9 193.89c-5.7,-2.89 -11.32,-6.15 -16.7,-9.68 -4.77,-3.13 -11.16,-1.78 -14.29,2.98 -3.12,4.77 -1.79,11.16 2.98,14.28 6.02,3.94 12.29,7.57 18.68,10.81 1.5,0.76 3.09,1.11 4.65,1.11 3.77,0 7.4,-2.06 9.21,-5.64 2.58,-5.08 0.56,-11.29 -4.54,-13.87zm-5.05 -386.46c1.57,0 3.18,-0.36 4.67,-1.12 5.76,-2.93 11.69,-5.55 17.63,-7.77 5.33,-1.99 8.04,-7.95 6.05,-13.28 -1.99,-5.34 -7.89,-8.06 -13.28,-6.05 -6.67,2.5 -13.32,5.43 -19.77,8.72 -5.08,2.58 -7.1,8.8 -4.51,13.88 1.83,3.57 5.45,5.62 9.2,5.62zm-62.94 51.37c2.99,0 5.96,-1.29 8,-3.79 4.12,-5.05 8.49,-9.91 13.01,-14.46 4.01,-4.04 3.99,-10.58 -0.06,-14.59 -4.04,-4 -10.57,-3.99 -14.59,0.06 -4.97,5.01 -9.8,10.38 -14.34,15.93 -3.61,4.42 -2.95,10.92 1.47,14.52 1.92,1.57 4.24,2.32 6.52,2.32zm336.42 130.55c-5.71,0 -10.32,4.94 -10.32,10.65 0,6.38 -0.24,12.75 -0.72,18.98 -0.44,5.69 3.81,10.65 9.49,11.08 0.27,0.02 0.55,0.03 0.8,0.03 5.34,0 9.85,-4.11 10.28,-9.52 0.53,-6.75 0.78,-13.67 0.78,-20.57l0 -0.66c0,-5.69 -4.61,-9.98 -10.32,-9.98zm-9.62 80.64c-5.38,-1.81 -11.26,1.08 -13.07,6.48 -2.08,6.17 -4.46,12.31 -7.05,18.26 -2.28,5.22 0.12,11.31 5.34,13.58 1.34,0.59 2.74,0.86 4.11,0.86 3.99,0 7.78,-2.32 9.47,-6.2 2.82,-6.49 5.4,-13.19 7.67,-19.91 1.84,-5.39 -1.06,-11.24 -6.47,-13.06zm-22.39 -211.59c-3.99,-5.89 -8.31,-11.66 -12.82,-17.15 -3.63,-4.4 -10.11,-5.03 -14.53,-1.41 -4.4,3.62 -5.03,10.12 -1.41,14.53 4.11,4.99 8.04,10.25 11.67,15.61 1.99,2.95 5.25,4.53 8.55,4.53 1.99,0 4,-0.58 5.78,-1.78 4.72,-3.21 5.95,-9.62 2.76,-14.33zm-162.32 353.37c-6.41,0 -12.87,-0.38 -19.16,-1.14 -5.81,-0.58 -10.8,3.37 -11.47,9.03 -0.67,5.65 3.36,10.79 9.02,11.47 7.12,0.85 14.4,1.28 21.63,1.28l0.87 0c5.71,0 9.88,-4.62 9.88,-10.32 0,-5.7 -5.06,-10.33 -10.76,-10.33z"/>
 </g>
</svg>
